<?xml version="1.0" encoding="UTF-8" standalone="no"?>
<svg
   xmlns:dc="http://purl.org/dc/elements/1.1/"
   xmlns:cc="http://creativecommons.org/ns#"
   xmlns:rdf="http://www.w3.org/1999/02/22-rdf-syntax-ns#"
   xmlns:svg="http://www.w3.org/2000/svg"
   xmlns="http://www.w3.org/2000/svg"
   xmlns:sodipodi="http://sodipodi.sourceforge.net/DTD/sodipodi-0.dtd"
   xmlns:inkscape="http://www.inkscape.org/namespaces/inkscape"
   width="169.39865mm"
   height="101.47288mm"
   viewBox="0 0 169.39865 101.47288"
   version="1.1"
   id="svg2434"
   inkscape:version="1.0 (b51213c273, 2020-08-10)"
   sodipodi:docname="bg2.svg">
  <defs
     id="defs2428" />
  <sodipodi:namedview
     id="base"
     pagecolor="#ffffff"
     bordercolor="#666666"
     borderopacity="1.0"
     inkscape:pageopacity="0.0"
     inkscape:pageshadow="2"
     inkscape:zoom="0.35"
     inkscape:cx="311.552"
     inkscape:cy="457.47405"
     inkscape:document-units="mm"
     inkscape:current-layer="layer1"
     inkscape:document-rotation="0"
     showgrid="false"
     inkscape:window-width="1261"
     inkscape:window-height="974"
     inkscape:window-x="56"
     inkscape:window-y="25"
     inkscape:window-maximized="0" />
  <metadata
     id="metadata2431">
    <rdf:RDF>
      <cc:Work
         rdf:about="">
        <dc:format>image/svg+xml</dc:format>
        <dc:type
           rdf:resource="http://purl.org/dc/dcmitype/StillImage" />
        <dc:title></dc:title>
      </cc:Work>
    </rdf:RDF>
  </metadata>
  <g
     inkscape:label="Layer 1"
     inkscape:groupmode="layer"
     id="layer1"
     transform="translate(-23.401866,-27.126657)">
    <path
       d="m 192.3004,88.462728 c 0,7.787568 -6.47629,14.100522 -14.46495,14.100522 -7.98865,0 -14.46494,-6.312954 -14.46494,-14.100522 0,-7.787569 6.47629,-14.100527 14.46494,-14.100527 7.98866,0 14.46495,6.312958 14.46495,14.100527"
       style="fill:#f6ba1a;fill-opacity:1;fill-rule:nonzero;stroke:none;stroke-width:0.352777"
       id="path434" />
    <path
       d="m 168.10136,90.247951 h 0.26987 c 0.14359,0 0.24589,-0.02963 0.30728,-0.08925 0.0607,-0.05927 0.0917,-0.159456 0.0917,-0.299863 v -2.712154 c 0,-0.132998 -0.031,-0.229306 -0.0917,-0.288925 -0.0614,-0.05962 -0.16369,-0.08925 -0.30728,-0.08925 h -0.2159 V 85.98005 h 1.34797 l 0.0755,0.71473 c 0.19403,-0.294217 0.43674,-0.513292 0.72814,-0.656873 0.29104,-0.143933 0.64488,-0.215548 1.06221,-0.215548 0.31609,0 0.58949,0.06985 0.8195,0.210256 0.23001,0.140052 0.40252,0.339725 0.51753,0.599017 0.17956,-0.280107 0.40075,-0.485069 0.66322,-0.614892 0.26247,-0.129823 0.59126,-0.194381 0.98707,-0.194381 0.58914,0 1.0153,0.143581 1.27776,0.431096 0.26212,0.28716 0.3937,0.718254 0.3937,1.292577 v 2.31281 c 0,0.13335 0.0325,0.231423 0.097,0.294571 0.0646,0.06315 0.16545,0.09454 0.30198,0.09454 h 0.30197 v 0.777875 h -1.83338 v -3.4798 c 0,-0.350308 -0.0684,-0.599017 -0.20497,-0.746125 -0.13652,-0.147108 -0.36653,-0.22084 -0.69003,-0.22084 -0.33091,0 -0.59161,0.09137 -0.78211,0.273405 -0.1905,0.182385 -0.28575,0.448733 -0.28575,0.799041 v 2.207329 c 0,0.140407 0.0272,0.240596 0.0811,0.299863 0.054,0.05962 0.14887,0.08925 0.28575,0.08925 h 0.29104 v 0.777875 h -1.72543 v -3.44805 c 0,-0.343252 -0.0684,-0.59549 -0.20497,-0.75706 -0.13652,-0.160867 -0.35242,-0.241655 -0.64699,-0.241655 -0.35948,0 -0.63606,0.09842 -0.83044,0.294217 -0.19403,0.196498 -0.29104,0.483658 -0.29104,0.86219 v 2.123368 c 0,0.140407 0.0268,0.240596 0.0808,0.299863 0.054,0.05962 0.14923,0.08925 0.28575,0.08925 h 0.2914 v 0.777875 h -2.44828 z"
       style="fill:#ffffff;fill-opacity:1;fill-rule:nonzero;stroke:none;stroke-width:0.352777"
       id="path438" />
    <path
       d="m 178.0014,90.479223 c -0.44591,-0.469548 -0.66887,-1.124656 -0.66887,-1.966031 0,-0.847725 0.22119,-1.508125 0.66358,-1.981552 0.44203,-0.472723 1.10525,-0.709435 1.98966,-0.709435 0.88407,0 1.54729,0.236712 1.98967,0.709435 0.44203,0.473427 0.66322,1.133827 0.66322,1.981552 0,0.841375 -0.22295,1.496483 -0.66886,1.966031 -0.44591,0.469548 -1.10702,0.704498 -1.98403,0.704498 -0.87735,0 -1.53881,-0.23495 -1.98437,-0.704498 m 3.13796,-0.546452 c 0.25188,-0.308329 0.37747,-0.781756 0.37747,-1.419579 0,-0.644525 -0.12559,-1.122892 -0.37747,-1.434746 -0.25153,-0.311856 -0.63606,-0.467783 -1.15359,-0.467783 -0.51787,0 -0.90064,0.155927 -1.14864,0.467783 -0.248,0.311854 -0.37218,0.790221 -0.37218,1.434746 0,0.637823 0.12418,1.11125 0.37218,1.419579 0.248,0.308327 0.63077,0.462492 1.14864,0.462492 0.51753,0 0.90206,-0.154165 1.15359,-0.462492"
       style="fill:#ffffff;fill-opacity:1;fill-rule:nonzero;stroke:none;stroke-width:0.352777"
       id="path442" />
    <path
       d="m 184.15921,90.752591 c -0.30198,-0.287161 -0.45297,-0.707673 -0.45297,-1.261534 v -2.754135 h -0.84102 v -0.757063 h 0.84102 v -1.135237 l 1.143,-0.357365 v 1.492602 h 1.55328 v 0.757063 h -1.55328 v 2.827867 c 0,0.308327 0.0596,0.529166 0.17815,0.662162 0.11854,0.132998 0.30022,0.199673 0.54434,0.199673 0.31644,0 0.55739,-0.06668 0.72284,-0.199673 v -0.45226 h 0.98143 v 0.799041 c -0.23742,0.196498 -0.49601,0.347134 -0.77646,0.452261 -0.28046,0.105129 -0.61137,0.157691 -0.99237,0.157691 -0.5969,0 -1.04598,-0.143933 -1.34796,-0.431093"
       style="fill:#ffffff;fill-opacity:1;fill-rule:nonzero;stroke:none;stroke-width:0.352777"
       id="path446" />
    <path
       d="m 41.587983,27.126657 h 10.836275 v 2.024944 h -4.255911 v 11.361208 h -2.34315 V 29.151601 h -4.237214 z"
       style="fill:#231f20;fill-opacity:1;fill-rule:nonzero;stroke:none;stroke-width:0.352777"
       id="path450" />
    <path
       d="m 53.680005,27.126657 h 2.137129 v 4.968169 h 0.03775 c 0.274815,-0.449792 0.67169,-0.818444 1.190273,-1.105958 0.518583,-0.287514 1.090435,-0.431448 1.715558,-0.431448 1.074912,0 1.915229,0.284692 2.521654,0.853017 0.606073,0.569031 0.909108,1.384653 0.909108,2.446514 v 6.655858 h -2.137131 v -6.093178 c -0.0127,-0.750005 -0.172156,-1.299633 -0.478366,-1.649588 -0.30621,-0.349956 -0.777875,-0.525286 -1.415344,-0.525286 -0.699913,0 -1.265415,0.243769 -1.696508,0.731308 -0.431094,0.487186 -0.646994,1.093611 -0.646994,1.818569 v 5.718175 h -2.137129 z"
       style="fill:#231f20;fill-opacity:1;fill-rule:nonzero;stroke:none;stroke-width:0.352777"
       id="path454" />
    <path
       d="m 66.109564,36.219468 c 0,0.812447 0.225073,1.493661 0.674864,2.043642 0.449792,0.54998 1.093611,0.824794 1.931107,0.824794 1.199795,0 1.987195,-0.537633 2.362197,-1.612547 h 2.024592 c -0.225071,1.037519 -0.740479,1.846791 -1.546577,2.427816 -0.806098,0.581378 -1.752952,0.871714 -2.840212,0.871714 -1.487665,0 -2.650067,-0.468489 -3.487209,-1.405819 -0.837496,-0.937331 -1.255889,-2.168172 -1.255889,-3.693231 0,-0.687564 0.109008,-1.340555 0.328083,-1.959328 0.218369,-0.618419 0.534106,-1.165225 0.946502,-1.640063 0.412398,-0.475192 0.909463,-0.84702 1.490488,-1.115837 0.581377,-0.268463 1.221668,-0.403224 1.921579,-0.403224 0.687212,0 1.315508,0.131586 1.884185,0.394052 0.568679,0.262467 1.059391,0.625122 1.47179,1.087261 0.412398,0.462492 0.724606,0.993775 0.937331,1.593498 0.21237,0.599722 0.31891,1.225197 0.31891,1.874661 0,0.237772 -0.0127,0.475191 -0.03775,0.712611 z m 4.986866,-1.406173 c -0.03739,-0.712258 -0.278341,-1.318683 -0.721783,-1.818569 -0.443794,-0.499533 -1.015646,-0.750005 -1.715558,-0.750005 -0.724959,0 -1.325034,0.244122 -1.799519,0.731308 -0.475192,0.487186 -0.72531,1.099961 -0.750006,1.837266 z"
       style="fill:#231f20;fill-opacity:1;fill-rule:nonzero;stroke:none;stroke-width:0.352777"
       id="path458" />
    <path
       d="m 43.260113,43.836859 h 2.268361 l 1.893711,7.236883 h 0.0374 l 1.818569,-7.236883 h 2.156178 l 1.743427,7.236883 h 0.03739 l 1.9685,-7.236883 h 2.174875 l -3.037417,9.692569 h -2.193218 l -1.799874,-7.199135 h -0.03739 l -1.781175,7.199135 h -2.249664 z"
       style="fill:#231f20;fill-opacity:1;fill-rule:nonzero;stroke:none;stroke-width:0.352777"
       id="path462" />
    <path
       d="m 59.58007,52.376736 c -0.868891,-0.94368 -1.302808,-2.177697 -1.302808,-3.703108 0,-1.512006 0.433917,-2.739672 1.302808,-3.683706 0.86854,-0.94368 2.065163,-1.415344 3.590219,-1.415344 1.524706,0 2.721329,0.471664 3.590221,1.415344 0.868537,0.944034 1.302808,2.1717 1.302808,3.683706 0,1.525411 -0.434271,2.759428 -1.302808,3.703108 -0.868892,0.943681 -2.065515,1.415344 -3.590221,1.415344 -1.525056,0 -2.721679,-0.471663 -3.590219,-1.415344 m 4.808715,-0.56268 c 0.349954,-0.193675 0.637469,-0.452614 0.862542,-0.777875 0.22507,-0.324909 0.3937,-0.690387 0.505883,-1.096787 0.112887,-0.406047 0.168979,-0.827969 0.168979,-1.265766 0,-0.437092 -0.05609,-0.855839 -0.168979,-1.255889 -0.112183,-0.399697 -0.280813,-0.765528 -0.505883,-1.096786 -0.225073,-0.330906 -0.512588,-0.59055 -0.862542,-0.777875 -0.349956,-0.187325 -0.756356,-0.281164 -1.218496,-0.281164 -0.462489,0 -0.868889,0.09384 -1.218494,0.281164 -0.350308,0.187325 -0.637468,0.446969 -0.862541,0.777875 -0.225071,0.331258 -0.3937,0.697089 -0.506236,1.096786 -0.112535,0.40005 -0.168627,0.818797 -0.168627,1.255889 0,0.437797 0.05609,0.859719 0.168627,1.265766 0.112536,0.4064 0.281165,0.771878 0.506236,1.096787 0.225073,0.325261 0.515762,0.5842 0.871714,0.777875 0.356307,0.194027 0.759532,0.290688 1.209321,0.290688 0.46214,0 0.86854,-0.09666 1.218496,-0.290688"
       style="fill:#231f20;fill-opacity:1;fill-rule:nonzero;stroke:none;stroke-width:0.352777"
       id="path466" />
    <path
       d="m 69.844036,43.836859 h 2.005896 v 1.874661 h 0.03775 c 0.06209,-0.262466 0.180975,-0.51823 0.356307,-0.76835 0.174625,-0.249766 0.396523,-0.478366 0.665339,-0.684388 0.268817,-0.206375 0.559152,-0.371475 0.871713,-0.496712 0.31256,-0.124883 0.625123,-0.187677 0.937683,-0.187677 0.249767,0 0.47484,0.0127 0.674865,0.03775 0.06209,0.01235 0.105833,0.0187 0.131233,0.0187 v 2.061986 c -0.0501,-0.01199 -0.11924,-0.02469 -0.206375,-0.03739 -0.325263,-0.0374 -0.562329,-0.05645 -0.712258,-0.05645 -0.762707,0 -1.39065,0.293864 -1.884186,0.881239 -0.493889,0.588081 -0.740833,1.400175 -0.740833,2.437342 v 4.611863 h -2.137134 z"
       style="fill:#231f20;fill-opacity:1;fill-rule:nonzero;stroke:none;stroke-width:0.352777"
       id="path470" />
    <path
       d="m 85.235941,53.529526 h -2.024592 v -1.312334 h -0.03775 c -0.262467,0.524934 -0.66534,0.918634 -1.209323,1.1811 -0.543277,0.262467 -1.140532,0.3937 -1.789994,0.3937 -1.462617,0 -2.58445,-0.480836 -3.3655,-1.443566 -0.78105,-0.962378 -1.171575,-2.205567 -1.171575,-3.730625 0,-0.849842 0.115358,-1.59385 0.346779,-2.23132 0.231071,-0.637116 0.543631,-1.165225 0.937331,-1.583972 0.3937,-0.418747 0.840317,-0.728133 1.340557,-0.928158 0.499533,-0.199672 1.024466,-0.299861 1.5748,-0.299861 0.662162,0 1.287285,0.128411 1.87466,0.384528 0.587375,0.256116 1.037167,0.634294 1.349727,1.13418 h 0.03775 v -4.949825 h 2.137127 z m -6.777212,-2.399947 c 0.456141,0.650169 1.121479,0.975077 1.99672,0.975077 0.46214,0 0.865013,-0.09666 1.208971,-0.290689 0.343604,-0.193322 0.627944,-0.452613 0.853017,-0.777875 0.225071,-0.324908 0.390525,-0.690386 0.497062,-1.096786 0.105834,-0.406047 0.159105,-0.827969 0.159105,-1.265414 0,-1.062213 -0.240596,-1.89618 -0.721784,-2.502958 -0.481189,-0.606072 -1.134181,-0.909108 -1.958975,-0.909108 -0.475191,0 -0.890764,0.09701 -1.246716,0.290336 -0.356307,0.194028 -0.640646,0.459669 -0.853017,0.796925 -0.212725,0.337608 -0.369006,0.715433 -0.468842,1.134533 -0.100189,0.418748 -0.149931,0.852664 -0.149931,1.302456 0,0.912636 0.227894,1.694039 0.68439,2.343503"
       style="fill:#231f20;fill-opacity:1;fill-rule:nonzero;stroke:none;stroke-width:0.352777"
       id="path474" />
    <path
       d="m 43.784729,58.782923 h 0.449087 v 1.217435 h -0.449087 z m 0,2.36361 h 0.449087 v 6.074834 h -0.449087 z"
       style="fill:#231f20;fill-opacity:1;fill-rule:nonzero;stroke:none;stroke-width:0.352777"
       id="path476" />
    <path
       d="m 45.876631,65.200588 c 0.0314,0.551743 0.234244,0.984956 0.608541,1.299985 0.374298,0.315383 0.841023,0.472723 1.400528,0.472723 0.2286,0 0.451203,-0.01939 0.667808,-0.05892 0.216606,-0.03951 0.42157,-0.106537 0.614539,-0.201083 0.19297,-0.09454 0.348545,-0.226484 0.466725,-0.395817 0.118534,-0.169333 0.177447,-0.380293 0.177447,-0.632529 0,-0.236008 -0.05151,-0.431096 -0.153458,-0.584906 -0.102658,-0.15381 -0.240594,-0.277635 -0.413808,-0.372182 -0.173567,-0.0949 -0.362303,-0.169333 -0.567267,-0.224718 -0.204964,-0.05503 -0.464961,-0.1143 -0.779992,-0.177094 l -0.165452,-0.03563 c -0.315384,-0.06315 -0.589139,-0.129823 -0.82162,-0.200732 -0.23248,-0.07091 -0.445205,-0.167568 -0.638175,-0.289628 -0.192969,-0.122063 -0.34678,-0.285398 -0.460727,-0.490363 -0.1143,-0.204962 -0.17145,-0.453319 -0.17145,-0.744712 0,-0.283634 0.06315,-0.527757 0.189088,-0.732722 0.125942,-0.204962 0.295275,-0.3683 0.508,-0.490712 0.213078,-0.122063 0.447323,-0.208491 0.703439,-0.259998 0.255764,-0.05115 0.521759,-0.07691 0.797631,-0.07691 0.6858,0 1.231194,0.158046 1.636889,0.473075 0.406046,0.315383 0.608894,0.803629 0.608894,1.46544 h -0.449439 c -0.0078,-0.527757 -0.173214,-0.917575 -0.496358,-1.169811 -0.323145,-0.252238 -0.756003,-0.378531 -1.299986,-0.378531 -0.220486,0 -0.433211,0.02188 -0.638175,0.06491 -0.204964,0.04339 -0.391936,0.110421 -0.56127,0.201083 -0.169686,0.09067 -0.303388,0.212725 -0.401813,0.366538 -0.09878,0.153459 -0.147814,0.333021 -0.147814,0.537634 0,0.212725 0.04904,0.394052 0.147814,0.543628 0.09842,0.149932 0.232127,0.269875 0.401813,0.36054 0.169334,0.09067 0.348545,0.161573 0.537634,0.212725 0.189089,0.05115 0.437444,0.112184 0.744714,0.183092 0.07867,0.01587 0.141816,0.02752 0.189088,0.03528 0.362303,0.07126 0.663575,0.142171 0.90417,0.212725 0.240242,0.07126 0.455083,0.169688 0.644172,0.295629 0.189089,0.126294 0.33655,0.293511 0.443088,0.502354 0.106187,0.208846 0.159456,0.46708 0.159456,0.773996 0,0.307269 -0.07091,0.5715 -0.212725,0.791986 -0.141817,0.220485 -0.328788,0.395816 -0.561269,0.525991 -0.23248,0.129823 -0.486833,0.22225 -0.762353,0.277636 -0.275872,0.05503 -0.555272,0.0829 -0.839258,0.0829 -0.716844,0 -1.302103,-0.189442 -1.755069,-0.567267 -0.452967,-0.378179 -0.687564,-0.910166 -0.703086,-1.595614 z"
       style="fill:#231f20;fill-opacity:1;fill-rule:nonzero;stroke:none;stroke-width:0.352777"
       id="path480" />
    <path
       d="m 54.533656,62.954804 c 0.122063,-0.38594 0.305155,-0.724606 0.54963,-1.016352 0.24412,-0.291396 0.539395,-0.519641 0.886177,-0.685448 0.346781,-0.165452 0.736952,-0.248356 1.170165,-0.248356 0.43321,0 0.825145,0.0829 1.17616,0.248356 0.350308,0.165807 0.645583,0.394052 0.886177,0.685448 0.240241,0.291746 0.421568,0.630412 0.543631,1.016352 0.12206,0.386292 0.183092,0.795867 0.183092,1.229432 0,0.43321 -0.06103,0.84102 -0.183092,1.223078 -0.122063,0.382413 -0.305154,0.72108 -0.549629,1.016355 -0.244121,0.295627 -0.53975,0.525992 -0.886177,0.691444 -0.347134,0.165451 -0.736952,0.248356 -1.170162,0.248356 -0.433213,0 -0.8255,-0.08291 -1.176163,-0.248356 -0.350309,-0.165452 -0.643819,-0.3937 -0.880179,-0.685449 -0.236363,-0.291393 -0.41769,-0.630412 -0.543983,-1.016351 -0.125942,-0.38594 -0.188738,-0.795867 -0.188738,-1.229077 0,-0.433565 0.06068,-0.84314 0.183091,-1.229432 m 0.419455,2.287059 c 0.102304,0.335139 0.254352,0.632531 0.455083,0.892175 0.200729,0.259998 0.446969,0.465314 0.738717,0.614539 0.291394,0.149929 0.6223,0.224719 0.992717,0.224719 0.370416,0 0.70132,-0.07479 0.992714,-0.224719 0.291396,-0.149225 0.537988,-0.354541 0.738716,-0.614539 0.200732,-0.259644 0.352425,-0.557036 0.455084,-0.892175 0.102306,-0.334786 0.153458,-0.687211 0.153458,-1.057627 0,-0.370417 -0.05115,-0.722842 -0.153458,-1.057982 -0.102659,-0.334785 -0.254352,-0.632177 -0.455084,-0.892175 -0.200728,-0.259998 -0.44732,-0.46496 -0.738716,-0.61454 -0.291394,-0.149576 -0.622298,-0.224718 -0.992714,-0.224718 -0.370417,0 -0.701323,0.07514 -0.992717,0.224718 -0.291748,0.14958 -0.537988,0.354542 -0.738717,0.61454 -0.200731,0.259998 -0.352779,0.55739 -0.455083,0.892175 -0.102306,0.33514 -0.153458,0.687565 -0.153458,1.057982 0,0.370416 0.05115,0.722841 0.153458,1.057627"
       style="fill:#231f20;fill-opacity:1;fill-rule:nonzero;stroke:none;stroke-width:0.352777"
       id="path484" />
    <path
       d="m 65.790794,67.221475 h -0.449086 v -1.30034 h -0.02363 c -0.149579,0.44168 -0.427567,0.791988 -0.833263,1.052338 -0.405693,0.259996 -0.853016,0.389819 -1.34126,0.389819 -0.496358,0 -0.896408,-0.08678 -1.199798,-0.259998 -0.303387,-0.173212 -0.523875,-0.388054 -0.66181,-0.644171 -0.137936,-0.255765 -0.222602,-0.508 -0.254,-0.756356 -0.03175,-0.248002 -0.04727,-0.513998 -0.04727,-0.797632 v -3.758493 h 0.449087 v 3.841398 c 0,0.220485 0.01588,0.43321 0.04727,0.638175 0.0314,0.20461 0.102306,0.411692 0.212725,0.620183 0.110421,0.209196 0.285398,0.38241 0.525992,0.519994 0.240241,0.137935 0.553508,0.207081 0.939448,0.207081 0.669573,0 1.20156,-0.234246 1.595614,-0.70344 0.394052,-0.468841 0.590902,-1.081264 0.590902,-1.837618 v -3.285773 h 0.449086 z"
       style="fill:#231f20;fill-opacity:1;fill-rule:nonzero;stroke:none;stroke-width:0.352777"
       id="path488" />
    <path
       d="m 67.563645,62.493927 h 0.03563 c 0.117827,-0.3937 0.391584,-0.722842 0.821267,-0.986719 0.429331,-0.264231 0.931333,-0.396171 1.506715,-0.396171 v 0.44944 c -0.02363,0 -0.05891,-0.0042 -0.106188,-0.01199 H 69.70289 c -0.244475,0 -0.494596,0.04763 -0.750713,0.141817 -0.256117,0.09454 -0.49036,0.248353 -0.703085,0.461078 -0.23636,0.244123 -0.403932,0.486482 -0.502357,0.726723 -0.09842,0.240594 -0.159453,0.581025 -0.183091,1.02235 v 3.32105 h -0.449085 v -6.074833 h 0.449085 z"
       style="fill:#231f20;fill-opacity:1;fill-rule:nonzero;stroke:none;stroke-width:0.352777"
       id="path492" />
    <path
       d="m 75.735671,62.903052 0.02328,0.0028 c 0.07514,-0.15734 0.180271,-0.317148 0.315738,-0.479073 0.13476,-0.161573 0.301977,-0.307623 0.500591,-0.43815 0.198612,-0.129823 0.431446,-0.228248 0.697442,-0.294923 0.266345,-0.06597 0.555625,-0.07973 0.868537,-0.04092 0.453673,0.05609 0.840317,0.187677 1.159933,0.394052 0.319969,0.206023 0.575027,0.4699 0.765527,0.791281 0.1905,0.321379 0.316797,0.678392 0.379238,1.071034 0.06279,0.392993 0.06668,0.808212 0.0127,1.24601 -0.118533,0.954265 -0.441325,1.688394 -0.969788,2.20204 -0.527753,0.51435 -1.237895,0.716137 -2.129012,0.60607 -0.524227,-0.06491 -0.963435,-0.236712 -1.317977,-0.514702 -0.354541,-0.278341 -0.588788,-0.662868 -0.702733,-1.152877 l -0.02328,-0.0028 -0.422982,3.413125 -0.445558,-0.05539 1.014235,-8.186915 0.445558,0.05503 z m 2.701574,4.580115 c 0.303389,-0.109009 0.564443,-0.277284 0.782814,-0.504474 0.219073,-0.226835 0.393698,-0.500943 0.524931,-0.821973 0.130881,-0.321378 0.220488,-0.673452 0.267758,-1.056568 0.04375,-0.352073 0.04304,-0.699207 -0.0019,-1.042459 -0.04516,-0.3429 -0.142875,-0.658635 -0.293513,-0.94756 -0.150987,-0.288221 -0.361595,-0.52705 -0.632177,-0.715433 -0.270226,-0.188383 -0.600778,-0.306565 -0.99201,-0.354896 -0.391231,-0.04833 -0.736248,-0.01553 -1.036108,0.09772 -0.29986,0.113945 -0.55386,0.288925 -0.761648,0.525285 -0.207785,0.23636 -0.373592,0.515408 -0.497062,0.837494 -0.123122,0.322088 -0.207788,0.670983 -0.254355,1.045988 -0.04762,0.383468 -0.05433,0.741891 -0.02011,1.075618 0.03387,0.333727 0.11924,0.638175 0.256116,0.91299 0.136525,0.274812 0.340432,0.50447 0.611013,0.688975 0.270934,0.184502 0.6096,0.301625 1.016704,0.35207 0.382765,0.04762 0.726017,0.01659 1.029407,-0.09278"
       style="fill:#231f20;fill-opacity:1;fill-rule:nonzero;stroke:none;stroke-width:0.352777"
       id="path496" />
    <path
       d="m 83.589068,60.510504 -2.259893,8.130469 -0.432859,-0.120296 2.259894,-8.130471 z"
       style="fill:#231f20;fill-opacity:1;fill-rule:nonzero;stroke:none;stroke-width:0.352777"
       id="path500" />
    <path
       d="m 87.01969,69.638814 c -0.09384,0.216959 -0.14605,0.391935 -0.155927,0.524934 -0.01058,0.132998 0.06738,0.235301 0.233892,0.307268 0.07197,0.0314 0.178152,0.06421 0.317852,0.09878 l -0.150283,0.347133 -0.03245,-0.0141 c -0.149932,-0.03034 -0.25753,-0.05962 -0.32244,-0.08784 -0.296685,-0.128762 -0.465667,-0.283279 -0.507294,-0.464254 -0.04233,-0.181329 -0.0049,-0.405696 0.110419,-0.6731 l 0.127,-0.292806 -0.02151,-0.0095 c -0.291041,0.294923 -0.671689,0.480483 -1.141941,0.555625 -0.470607,0.07549 -0.95885,0.0039 -1.465088,-0.215194 -0.571146,-0.246946 -0.971196,-0.567973 -1.199444,-0.963083 -0.228248,-0.394758 -0.22366,-0.86713 0.0141,-1.416756 0.134408,-0.31115 0.306564,-0.545394 0.516821,-0.703792 0.209902,-0.158044 0.440266,-0.253648 0.690737,-0.28716 0.250473,-0.03316 0.503063,-0.02681 0.757767,0.01905 0.255058,0.04551 0.521054,0.116062 0.797983,0.209902 0.499888,0.173214 0.881592,0.29351 1.144765,0.359833 0.263173,0.06667 0.470958,0.08749 0.623006,0.0635 0.152046,-0.02434 0.271992,-0.09278 0.359127,-0.205317 0.08714,-0.112183 0.18556,-0.294923 0.295275,-0.548216 0.03422,-0.07973 0.05397,-0.18909 0.05856,-0.32879 0.0042,-0.1397 -0.02469,-0.295979 -0.08714,-0.468842 -0.06244,-0.17286 -0.178858,-0.34572 -0.348898,-0.517877 -0.170037,-0.172508 -0.403577,-0.323143 -0.69991,-0.45085 -0.506236,-0.219427 -0.966965,-0.265993 -1.381477,-0.140758 -0.414867,0.12559 -0.74013,0.420158 -0.97508,0.885118 l -0.412395,-0.178151 c 0.291745,-0.595136 0.685445,-0.969434 1.181804,-1.124302 0.496006,-0.154165 1.076325,-0.08784 1.742016,0.200025 0.267407,0.11571 0.504825,0.246237 0.712613,0.391935 0.207079,0.145343 0.379942,0.312208 0.517171,0.500592 0.137583,0.188031 0.217312,0.401108 0.239537,0.637823 0.02151,0.237066 -0.02681,0.492828 -0.145698,0.767643 z m 0.511882,-2.315281 c -0.161573,0.0762 -0.359127,0.09172 -0.592667,0.04621 -0.23354,-0.04516 -0.552098,-0.137936 -0.954969,-0.277636 -0.298804,-0.103716 -0.517879,-0.172863 -0.657579,-0.207433 -0.531283,-0.160867 -0.968021,-0.197556 -1.310569,-0.109715 -0.3429,0.08784 -0.601839,0.334082 -0.777168,0.739069 -0.153107,0.35419 -0.152755,0.700265 0.0021,1.037521 0.154163,0.337254 0.466725,0.607835 0.936977,0.811035 0.433917,0.187677 0.825148,0.264935 1.17475,0.231069 0.34925,-0.03316 0.643467,-0.129117 0.884061,-0.28716 0.239889,-0.158044 0.427566,-0.323499 0.562681,-0.496711 0.13476,-0.173921 0.228952,-0.321733 0.282223,-0.444854 z"
       style="fill:#231f20;fill-opacity:1;fill-rule:nonzero;stroke:none;stroke-width:0.352777"
       id="path504" />
    <path
       d="m 90.318798,65.775474 0.43815,0.301273 -1.280583,5.846586 4.854575,-3.389136 0.418748,0.287867 -5.952773,4.068233 c -0.328787,0.213784 -0.588785,0.369711 -0.780695,0.467429 -0.191559,0.09772 -0.362657,0.152048 -0.513647,0.162983 -0.1905,0.01236 -0.378528,-0.02611 -0.56515,-0.116416 -0.18697,-0.09031 -0.439208,-0.244475 -0.75706,-0.463196 l 0.220485,-0.321381 c 0.266348,0.18274 0.491422,0.304448 0.675217,0.363715 0.183798,0.05962 0.379942,0.06985 0.588081,0.03175 0.109361,-0.02082 0.25894,-0.09243 0.448734,-0.215197 0.190148,-0.122766 0.482248,-0.325612 0.87771,-0.608541 z"
       style="fill:#231f20;fill-opacity:1;fill-rule:nonzero;stroke:none;stroke-width:0.352777"
       id="path508" />
    <path
       d="M 99.320804,73.364915 95.186954,77.37 c -0.164393,0.15875 -0.351718,0.312915 -0.563385,0.463198 -0.21096,0.149577 -0.480483,0.270582 -0.80786,0.363009 -0.32738,0.09243 -0.695325,0.07796 -1.102431,-0.04233 -0.407811,-0.121002 -0.823032,-0.398991 -1.245307,-0.834673 -0.487892,-0.503767 -0.771877,-1.01247 -0.853017,-1.526117 -0.08079,-0.51435 0.10513,-1.012825 0.558449,-1.495776 l 0.31256,0.322439 c -0.334785,0.390525 -0.466371,0.797629 -0.395462,1.222375 0.07126,0.424392 0.29351,0.829379 0.666043,1.214261 0.345369,0.356306 0.682977,0.583141 1.013177,0.680508 0.3302,0.09701 0.629357,0.111125 0.897821,0.04339 0.268462,-0.06809 0.491771,-0.163336 0.669219,-0.286102 0.177093,-0.122767 0.330906,-0.246592 0.461081,-0.37324 l 1.001887,-0.97014 -0.01659,-0.01693 c -0.963438,0.3302 -1.804458,0.124531 -2.522715,-0.616654 -0.597606,-0.617008 -0.851606,-1.278467 -0.762352,-1.98473 0.0889,-0.70626 0.453319,-1.368776 1.092904,-1.988608 0.293865,-0.285043 0.6096,-0.511527 0.946857,-0.678743 0.33655,-0.167569 0.682273,-0.266349 1.036814,-0.29704 0.354188,-0.03034 0.702027,0.01693 1.042459,0.141816 0.340783,0.125238 0.656518,0.337963 0.946854,0.637824 0.340079,0.351014 0.563387,0.759883 0.670279,1.226608 0.106892,0.467077 0.05644,0.910518 -0.150638,1.330677 l 0.01622,0.01693 0.908402,-0.879827 z m -2.84762,-2.276827 c -0.293513,-0.09948 -0.592667,-0.127706 -0.897115,-0.08537 -0.304448,0.04268 -0.600075,0.1397 -0.886531,0.291042 -0.286454,0.151693 -0.548569,0.342193 -0.785987,0.572558 -0.537988,0.521052 -0.852313,1.091142 -0.942623,1.711325 -0.09067,0.619477 0.102658,1.175808 0.579614,1.668285 0.487892,0.503415 1.047396,0.718608 1.678162,0.64488 0.630767,-0.07338 1.209324,-0.365125 1.735667,-0.875242 0.249063,-0.2413 0.453673,-0.502356 0.614188,-0.784225 0.160512,-0.281871 0.262467,-0.569738 0.30621,-0.864306 0.09948,-0.656167 -0.09737,-1.238602 -0.590902,-1.747661 -0.246591,-0.255058 -0.516821,-0.4318 -0.810683,-0.531283"
       style="fill:#231f20;fill-opacity:1;fill-rule:nonzero;stroke:none;stroke-width:0.352777"
       id="path512" />
    <path
       d="m 99.634672,76.12309 0.02011,0.02928 c 0.391588,-0.126296 0.817738,-0.08784 1.278468,0.116062 0.46108,0.203906 0.85513,0.542573 1.18145,1.016 l -0.36971,0.255058 c -0.0134,-0.01976 -0.0303,-0.05115 -0.0508,-0.09419 -0.0314,-0.04551 -0.0536,-0.07796 -0.067,-0.09772 -0.13864,-0.201083 -0.31962,-0.379942 -0.54292,-0.537281 -0.22261,-0.156986 -0.4826,-0.262819 -0.77823,-0.317146 -0.335493,-0.05609 -0.630064,-0.05645 -0.88371,-0.0013 -0.254,0.05539 -0.569031,0.198615 -0.945446,0.429683 l -2.734733,1.88454 -0.254704,-0.36971 5.001683,-3.447346 0.25506,0.369713 z"
       style="fill:#231f20;fill-opacity:1;fill-rule:nonzero;stroke:none;stroke-width:0.352777"
       id="path516" />
    <path
       d="m 101.03351,78.962625 c 0.40146,-0.05186 0.78599,-0.02893 1.15358,0.0695 0.36689,0.09843 0.69921,0.269875 0.99519,0.51435 0.29633,0.244475 0.53587,0.563034 0.71896,0.956027 0.18238,0.392642 0.27305,0.783167 0.27093,1.171223 -0.002,0.38735 -0.0847,0.751769 -0.24765,1.092552 -0.16263,0.341135 -0.3937,0.648052 -0.69215,0.921808 -0.29845,0.273757 -0.64417,0.50165 -1.03681,0.684742 -0.393,0.18274 -0.78846,0.299508 -1.1864,0.349957 -0.39793,0.05044 -0.78246,0.02752 -1.153225,-0.0695 -0.371123,-0.09666 -0.70485,-0.267406 -1.000832,-0.511881 -0.296333,-0.244475 -0.535868,-0.563385 -0.71896,-0.956027 -0.18274,-0.392642 -0.27305,-0.783167 -0.271288,-1.170868 0.0024,-0.387705 0.08573,-0.750359 0.250473,-1.087263 0.164394,-0.337609 0.395111,-0.644877 0.691798,-0.921809 0.296686,-0.277283 0.641702,-0.507645 1.034696,-0.690385 0.392998,-0.182385 0.790228,-0.300567 1.191688,-0.352425 m -1.896184,1.345494 c -0.260704,0.233891 -0.466021,0.497416 -0.617008,0.789164 -0.15099,0.291749 -0.233188,0.601134 -0.245533,0.928865 -0.01304,0.327377 0.05856,0.658635 0.214841,0.994834 0.156634,0.335843 0.363713,0.603953 0.622652,0.805391 0.25894,0.201084 0.548217,0.33796 0.868892,0.410279 0.32068,0.07267 0.65405,0.08467 1.00083,0.03598 0.34678,-0.04868 0.68827,-0.150635 1.02411,-0.306916 0.33585,-0.156279 0.63359,-0.351719 0.8943,-0.585611 0.26035,-0.234243 0.46566,-0.497064 0.61665,-0.789164 0.15099,-0.291746 0.23284,-0.601486 0.24554,-0.928862 0.013,-0.32738 -0.0589,-0.65899 -0.2152,-0.994834 -0.15628,-0.335846 -0.36371,-0.604308 -0.6223,-0.80504 -0.25894,-0.201435 -0.54857,-0.338314 -0.86889,-0.410633 -0.32067,-0.07267 -0.6544,-0.08467 -1.00118,-0.03633 -0.34678,0.04833 -0.68792,0.150987 -1.02377,0.307268 -0.33584,0.156282 -0.633938,0.351015 -0.893934,0.585611"
       style="fill:#231f20;fill-opacity:1;fill-rule:nonzero;stroke:none;stroke-width:0.352777"
       id="path520" />
    <path
       d="m 100.65095,90.960924 -0.0977,-0.43815 1.2693,-0.282575 -0.005,-0.02328 c -0.46355,-0.05009 -0.86607,-0.245181 -1.20791,-0.584552 -0.3422,-0.339725 -0.56621,-0.747889 -0.672398,-1.224846 -0.10795,-0.48401 -0.110422,-0.893585 -0.0071,-1.227312 0.103008,-0.333729 0.264938,-0.595842 0.485068,-0.78599 0.21978,-0.190148 0.44732,-0.327731 0.68263,-0.412398 0.23565,-0.08502 0.49177,-0.158043 0.7687,-0.219427 l 3.66818,-0.817739 0.0981,0.438856 -3.74932,0.835025 c -0.21555,0.04798 -0.41981,0.109715 -0.61277,0.185208 -0.19333,0.07479 -0.37959,0.18909 -0.55951,0.342194 -0.17992,0.153106 -0.3108,0.36195 -0.39335,0.626533 -0.0822,0.264584 -0.0815,0.584907 0.003,0.962025 0.14535,0.653346 0.48966,1.121834 1.03294,1.404409 0.54327,0.282929 1.18427,0.341841 1.92263,0.177448 l 3.20675,-0.714375 0.0977,0.43815 z"
       style="fill:#231f20;fill-opacity:1;fill-rule:nonzero;stroke:none;stroke-width:0.352777"
       id="path524" />
    <path
       d="m 106.82795,91.813332 0.004,0.449085 -1.29998,0.01058 v 0.02363 c 0.44238,0.14605 0.79551,0.420862 1.05868,0.824793 0.26318,0.403225 0.39688,0.84949 0.40076,1.338085 0.004,0.496359 -0.0794,0.896763 -0.25012,1.201563 -0.1711,0.3048 -0.38382,0.527402 -0.63888,0.667102 -0.25471,0.140052 -0.50624,0.226835 -0.75424,0.26035 -0.24765,0.03351 -0.51364,0.05115 -0.79763,0.05362 l -3.75814,0.03069 -0.004,-0.44944 3.84104,-0.03104 c 0.22049,-0.0019 0.43286,-0.01939 0.63782,-0.05221 0.20426,-0.03351 0.41064,-0.105834 0.61878,-0.218017 0.20778,-0.112183 0.37958,-0.288925 0.5154,-0.52987 0.13617,-0.241655 0.2025,-0.555273 0.19932,-0.941213 -0.005,-0.669925 -0.24412,-1.199796 -0.71578,-1.589969 -0.47237,-0.390173 -1.08656,-0.582083 -1.84256,-0.575733 l -3.28577,0.02646 -0.004,-0.449085 z"
       style="fill:#231f20;fill-opacity:1;fill-rule:nonzero;stroke:none;stroke-width:0.352777"
       id="path528" />
    <path
       d="m 101.01343,102.43765 0.005,-0.0233 c -0.83608,-0.68651 -1.143351,-1.54623 -0.92216,-2.578453 0.0924,-0.4318 0.25471,-0.79375 0.48648,-1.086557 0.23213,-0.292806 0.51506,-0.51435 0.84949,-0.663927 0.33443,-0.150283 0.69709,-0.235656 1.08832,-0.256116 0.39123,-0.02151 0.79869,0.01341 1.22237,0.10442 0.92499,0.198263 1.62772,0.584555 2.10891,1.158875 0.48119,0.574675 0.62935,1.293288 0.4445,2.156178 -0.10725,0.50059 -0.33514,0.92534 -0.68404,1.27353 -0.34854,0.34854 -0.76658,0.55104 -1.25412,0.60748 l -0.005,0.0233 3.63996,0.77999 -0.0938,0.43921 -8.251119,-1.76777 0.09384,-0.43956 z m -0.53587,-1.42028 c 0.091,0.30973 0.24554,0.58455 0.46391,0.82444 0.21837,0.24024 0.48013,0.43956 0.78457,0.59725 0.3048,0.15804 0.63042,0.27411 0.97685,0.34854 0.35454,0.0759 0.70485,0.10443 1.05127,0.0861 0.34678,-0.018 0.66816,-0.0907 0.96485,-0.21625 0.29704,-0.12559 0.55069,-0.31326 0.76129,-0.56197 0.21061,-0.24942 0.35525,-0.5588 0.43427,-0.92851 0.0811,-0.37783 0.0787,-0.72461 -0.006,-1.0407 -0.0854,-0.31644 -0.236,-0.590548 -0.45226,-0.822323 -0.21625,-0.231423 -0.47907,-0.424744 -0.78846,-0.579615 -0.30938,-0.15522 -0.64875,-0.271991 -1.01882,-0.351366 -0.36195,-0.07761 -0.71402,-0.106892 -1.05657,-0.08749 -0.34254,0.01905 -0.66075,0.09419 -0.95497,0.224719 -0.29386,0.130527 -0.54398,0.320323 -0.75035,0.570442 -0.20709,0.249414 -0.34996,0.559506 -0.42898,0.929213 -0.0776,0.3623 -0.0713,0.6978 0.0198,1.00754"
       style="fill:#231f20;fill-opacity:1;fill-rule:nonzero;stroke:none;stroke-width:0.352777"
       id="path532" />
    <path
       d="m 67.078891,121.5979 c -13.959062,0 -25.316038,-11.35662 -25.316038,-25.316036 0,-13.959065 11.356976,-25.315688 25.316038,-25.315688 13.959065,0 25.31604,11.356623 25.31604,25.315688 0,13.959416 -11.356975,25.316036 -25.31604,25.316036 m 0,-39.110353 c -7.606242,0 -13.794317,6.188075 -13.794317,13.794317 0,7.606596 6.188075,13.794666 13.794317,13.794666 7.606242,0 13.794317,-6.18807 13.794317,-13.794666 0,-7.606242 -6.188075,-13.794317 -13.794317,-13.794317"
       style="fill:#9553af;fill-opacity:1;fill-rule:nonzero;stroke:none;stroke-width:0.352777"
       id="path536" />
    <path
       d="M 118.09948,64.51556 H 99.85417 V 46.967689 h 18.24531 z"
       style="fill:#50afb9;fill-opacity:1;fill-rule:nonzero;stroke:none;stroke-width:0.352777"
       id="path560" />
    <path
       d="m 37.500277,40.775101 c 0,3.841397 -3.15595,6.955366 -7.049205,6.955366 -3.892903,0 -7.049206,-3.113969 -7.049206,-6.955366 0,-3.841398 3.156303,-6.955367 7.049206,-6.955367 3.893255,0 7.049205,3.113969 7.049205,6.955367"
       style="fill:#f6ba1a;fill-opacity:1;fill-rule:nonzero;stroke:none;stroke-width:0.352777"
       id="path564" />
    <text
       style="font-variant:normal;font-weight:100;font-stretch:normal;font-size:5.95164px;font-family:Helvetica35-Thin;-inkscape-font-specification:Helvetica35-Thin;writing-mode:lr-tb;fill:#231f20;fill-opacity:1;fill-rule:nonzero;stroke:none;stroke-width:0.352777"
       id="text568"
       x="114.09574"
       y="113.03108"><tspan
         x="114.09574 117.42866 118.42854"
         y="113.03108"
         sodipodi:role="line"
         id="tspan566"
         style="stroke-width:0.352777">El</tspan></text>
    <text
       style="font-variant:normal;font-weight:bold;font-stretch:normal;font-size:5.95164px;font-family:Helvetica65-Medium;-inkscape-font-specification:Helvetica65-Medium;writing-mode:lr-tb;fill:#231f20;fill-opacity:1;fill-rule:nonzero;stroke:none;stroke-width:0.352777"
       id="text572"
       x="120.08309"
       y="113.03108"><tspan
         x="120.08309 123.71954 125.81452 127.24887 132.4268 135.73592 137.83089 139.48544 141.46735 144.77647 146.2108 147.64516 150.95427"
         y="113.03108"
         sodipodi:role="line"
         id="tspan570"
         style="stroke-width:0.352777">primer taller</tspan></text>
    <text
       style="font-variant:normal;font-weight:100;font-stretch:normal;font-size:5.95164px;font-family:Helvetica35-Thin;-inkscape-font-specification:Helvetica35-Thin;writing-mode:lr-tb;fill:#231f20;fill-opacity:1;fill-rule:nonzero;stroke:none;stroke-width:0.352777"
       id="text578"
       x="154.70381"
       y="113.03108"><tspan
         x="154.70381 158.01292 161.10182 162.75638 165.73221 168.82109 170.36256 171.36246 173.45744 174.99892 178.08781 181.17673 184.26561 185.26549 188.3544"
         y="113.03108"
         sodipodi:role="line"
         id="tspan574"
         style="stroke-width:0.352777">de anti-técnica</tspan><tspan
         x="114.09574 117.18464 120.16046 121.81502 123.46957 126.4454 127.98687 128.98674 131.62929 134.6051 136.25966 139.56877 142.5446 144.19916 147.17497"
         y="120.17306"
         sodipodi:role="line"
         id="tspan576"
         style="stroke-width:0.352777">narrativa para</tspan></text>
    <text
       style="font-variant:normal;font-weight:bold;font-stretch:normal;font-size:5.95164px;font-family:Helvetica65-Medium;-inkscape-font-specification:Helvetica65-Medium;writing-mode:lr-tb;fill:#231f20;fill-opacity:1;fill-rule:nonzero;stroke:none;stroke-width:0.352777"
       id="text584"
       x="148.82954"
       y="120.17307"><tspan
         x="148.82954 151.91844 155.22754 158.6438 161.95291 165.26202 167.35699 169.01155 172.32068 173.75502 175.40956 180.58749 182.02184 185.33096 188.96741"
         y="120.17307"
         sodipodi:role="line"
         id="tspan580"
         style="stroke-width:0.352777">vencer el miedo</tspan><tspan
         x="114.09573 117.40485 119.0594 120.49375 123.80286 125.45742 128.87367 132.40298 133.83734 137.14645 138.80101 142.11012 145.52637 147.18092 150.81738 152.25172 155.56084 158.9771 162.28619"
         y="127.31505"
         sodipodi:role="line"
         id="tspan582"
         style="stroke-width:0.352777">a la hoja en blanco</tspan></text>
    <path
       d="m 107.63715,127.31495 h -8.526282 v -19.91396 h 8.526282 z"
       style="fill:#50afb9;fill-opacity:1;fill-rule:nonzero;stroke:none;stroke-width:0.352777"
       id="path594" />
  </g>
</svg>
