<?xml version="1.0" encoding="UTF-8" standalone="no"?>
<svg
   xmlns:dc="http://purl.org/dc/elements/1.1/"
   xmlns:cc="http://creativecommons.org/ns#"
   xmlns:rdf="http://www.w3.org/1999/02/22-rdf-syntax-ns#"
   xmlns:svg="http://www.w3.org/2000/svg"
   xmlns="http://www.w3.org/2000/svg"
   xmlns:sodipodi="http://sodipodi.sourceforge.net/DTD/sodipodi-0.dtd"
   xmlns:inkscape="http://www.inkscape.org/namespaces/inkscape"
   width="22.301899mm"
   height="21.74028mm"
   viewBox="0 0 22.301899 21.74028"
   version="1.1"
   id="svg1038"
   inkscape:version="1.0.1 (3bc2e813f5, 2020-09-07)"
   sodipodi:docname="estudiopalabras-icono-footer2.svg">
  <defs
     id="defs1032" />
  <sodipodi:namedview
     id="base"
     pagecolor="#ffffff"
     bordercolor="#666666"
     borderopacity="1.0"
     inkscape:pageopacity="0.0"
     inkscape:pageshadow="2"
     inkscape:zoom="0.35"
     inkscape:cx="22.145325"
     inkscape:cy="435.36971"
     inkscape:document-units="mm"
     inkscape:current-layer="layer1"
     inkscape:document-rotation="0"
     showgrid="false"
     fit-margin-top="0"
     fit-margin-left="0"
     fit-margin-right="0"
     fit-margin-bottom="0"
     inkscape:window-width="1261"
     inkscape:window-height="962"
     inkscape:window-x="0"
     inkscape:window-y="25"
     inkscape:window-maximized="0" />
  <metadata
     id="metadata1035">
    <rdf:RDF>
      <cc:Work
         rdf:about="">
        <dc:format>image/svg+xml</dc:format>
        <dc:type
           rdf:resource="http://purl.org/dc/dcmitype/StillImage" />
        <dc:title></dc:title>
      </cc:Work>
    </rdf:RDF>
  </metadata>
  <g
     inkscape:label="Layer 1"
     inkscape:groupmode="layer"
     id="layer1"
     transform="translate(-99.218097,-32.975098)">
    <path
       d="m 120.99083,43.845238 c 0,5.71112 -4.75544,10.340975 -10.62178,10.340975 -5.86634,0 -10.621788,-4.629855 -10.621788,-10.340975 0,-5.711119 4.755448,-10.340975 10.621788,-10.340975 5.86634,0 10.62178,4.629856 10.62178,10.340975 z"
       style="fill:none;stroke:#50afb9;stroke-width:1.05833;stroke-linecap:butt;stroke-linejoin:miter;stroke-miterlimit:10;stroke-dasharray:none;stroke-opacity:1"
       id="path886" />
    <path
       d="m 104.58374,42.750313 v 0.100189 h -1.31163 V 40.96808 h 1.29823 v 0.100541 h -1.17899 v 0.753534 h 1.10843 v 0.100189 h -1.10843 v 0.827969 z"
       style="fill:#231f20;fill-opacity:1;fill-rule:nonzero;stroke:none;stroke-width:0.352777"
       id="path890" />
    <path
       d="m 104.8164,42.399581 c 0.007,0.12312 0.0536,0.219781 0.13934,0.289984 0.0854,0.07056 0.19227,0.10548 0.32033,0.10548 0.0522,0 0.10336,-0.0042 0.15275,-0.01305 0.0497,-0.0088 0.0967,-0.02399 0.14076,-0.0448 0.0441,-0.02117 0.0797,-0.05045 0.10689,-0.08855 0.0268,-0.03775 0.0406,-0.08467 0.0406,-0.140758 0,-0.05292 -0.012,-0.09631 -0.0353,-0.130528 -0.0233,-0.03422 -0.055,-0.06209 -0.0945,-0.08326 -0.0399,-0.02081 -0.0829,-0.03775 -0.12983,-0.04974 -0.0469,-0.01235 -0.10653,-0.02575 -0.1785,-0.03986 l -0.0378,-0.0078 c -0.0723,-0.01411 -0.13511,-0.02893 -0.18803,-0.0448 -0.0533,-0.01588 -0.10195,-0.03739 -0.14605,-0.06456 -0.0441,-0.02752 -0.0794,-0.06385 -0.10548,-0.109714 -0.0261,-0.04551 -0.0392,-0.100894 -0.0392,-0.165805 0,-0.06315 0.0141,-0.117828 0.043,-0.163337 0.0289,-0.04586 0.0677,-0.0822 0.11642,-0.109713 0.0487,-0.02716 0.1023,-0.04657 0.16086,-0.05786 0.0586,-0.01129 0.1196,-0.01729 0.18274,-0.01729 0.15664,0 0.28152,0.03528 0.3743,0.10548 0.0928,0.07056 0.13935,0.179564 0.13935,0.327025 h -0.10266 c -0.002,-0.117827 -0.0399,-0.204611 -0.1136,-0.261055 -0.0741,-0.05609 -0.17321,-0.08431 -0.29739,-0.08431 -0.0508,0 -0.0995,0.0049 -0.1464,0.01447 -0.0466,0.0099 -0.0896,0.02469 -0.12841,0.0448 -0.0384,0.02011 -0.0691,0.04762 -0.0917,0.08184 -0.0226,0.03422 -0.0339,0.07408 -0.0339,0.119944 0,0.04727 0.0113,0.08784 0.0339,0.121356 0.0226,0.03316 0.0533,0.05997 0.0917,0.08008 0.0388,0.02046 0.0801,0.03634 0.12312,0.04762 0.0434,0.01129 0.10019,0.02505 0.17039,0.04092 l 0.0434,0.0078 c 0.0829,0.01588 0.1517,0.03175 0.20673,0.04763 0.055,0.01588 0.10407,0.03775 0.14746,0.06597 0.0434,0.02787 0.0769,0.06526 0.10125,0.11183 0.0247,0.04657 0.0367,0.10407 0.0367,0.172861 0,0.06844 -0.0162,0.127353 -0.0487,0.176389 -0.0324,0.04939 -0.0755,0.08855 -0.12841,0.117475 -0.0533,0.02893 -0.11147,0.04939 -0.17427,0.06174 -0.0631,0.01235 -0.12735,0.0187 -0.19226,0.0187 -0.16404,0 -0.29775,-0.04233 -0.40146,-0.126647 -0.10372,-0.08431 -0.15734,-0.2032 -0.16087,-0.355953 z"
       style="fill:#231f20;fill-opacity:1;fill-rule:nonzero;stroke:none;stroke-width:0.352777"
       id="path894" />
    <path
       d="m 106.57947,41.582389 h -0.30268 v 0.946503 c 0,0.09666 0.0219,0.159808 0.066,0.189795 0.0444,0.02963 0.12206,0.0448 0.23389,0.0448 v 0.08714 l -0.0378,0.0025 h -0.0353 c -0.0487,0 -0.0924,-0.0042 -0.13088,-0.01305 -0.0388,-0.0088 -0.073,-0.02505 -0.10302,-0.04904 -0.0296,-0.02363 -0.0533,-0.05715 -0.0702,-0.100189 -0.0169,-0.04269 -0.0258,-0.09701 -0.0258,-0.161925 V 41.58242 h -0.25682 v -0.08678 h 0.25682 v -0.421922 h 0.10301 v 0.421922 h 0.30269 z"
       style="fill:#231f20;fill-opacity:1;fill-rule:nonzero;stroke:none;stroke-width:0.352777"
       id="path898" />
    <path
       d="m 107.86951,42.850484 h -0.10266 v -0.289983 h -0.006 c -0.0342,0.09842 -0.0977,0.176742 -0.1905,0.234597 -0.0928,0.05821 -0.19508,0.08714 -0.30691,0.08714 -0.1136,0 -0.20532,-0.0194 -0.27446,-0.05821 -0.0695,-0.03845 -0.11995,-0.08643 -0.15135,-0.143581 -0.0318,-0.05715 -0.0512,-0.113241 -0.0582,-0.168627 -0.007,-0.05539 -0.0109,-0.114653 -0.0109,-0.178153 v -0.8382 h 0.10265 v 0.856897 c 0,0.04904 0.004,0.09666 0.0109,0.14217 0.007,0.04586 0.0233,0.09208 0.0487,0.138641 0.025,0.04657 0.0653,0.08502 0.1203,0.115711 0.055,0.03104 0.12665,0.04621 0.21519,0.04621 0.15311,0 0.27482,-0.05221 0.36478,-0.156986 0.0903,-0.104422 0.13546,-0.240947 0.13546,-0.409575 v -0.733072 h 0.10266 z"
       style="fill:#231f20;fill-opacity:1;fill-rule:nonzero;stroke:none;stroke-width:0.352777"
       id="path902" />
    <path
       d="m 109.24598,42.560501 h -0.006 c -0.11329,0.214489 -0.29109,0.321733 -0.53274,0.321733 -0.10089,0 -0.18944,-0.0187 -0.26635,-0.05539 -0.0765,-0.03704 -0.1397,-0.08819 -0.18908,-0.154516 -0.0498,-0.06562 -0.0861,-0.140759 -0.10972,-0.225073 -0.0233,-0.08431 -0.0349,-0.174977 -0.0349,-0.271639 0,-0.210961 0.0526,-0.382411 0.15804,-0.513997 0.10548,-0.131939 0.25929,-0.197908 0.46108,-0.197908 0.11712,0 0.22331,0.02999 0.31785,0.0896 0.0945,0.05997 0.15981,0.141816 0.1958,0.245533 h 0.006 v -0.830791 h 0.10266 v 1.882422 H 109.246 Z m -0.2921,0.183092 c 0.0649,-0.03422 0.11889,-0.08079 0.16228,-0.1397 0.0434,-0.05856 0.0751,-0.125236 0.096,-0.198967 0.0208,-0.07373 0.0311,-0.150283 0.0311,-0.229306 0,-0.08079 -0.0102,-0.15875 -0.0311,-0.233186 -0.0208,-0.07479 -0.0522,-0.141464 -0.0945,-0.200377 -0.0423,-0.05891 -0.0967,-0.105481 -0.16228,-0.1397 -0.066,-0.03457 -0.14217,-0.05151 -0.2286,-0.05151 -0.0882,0 -0.16581,0.01658 -0.23248,0.05009 -0.0667,0.03351 -0.121,0.07902 -0.16228,0.136877 -0.0416,0.05821 -0.0723,0.124531 -0.0921,0.19932 -0.0198,0.07479 -0.0296,0.154164 -0.0296,0.238478 0,0.08255 0.0102,0.160866 0.031,0.234597 0.0208,0.07373 0.0529,0.1397 0.096,0.197555 0.0434,0.05821 0.0977,0.10407 0.16369,0.137231 0.0656,0.03351 0.14182,0.0501 0.2286,0.0501 0.0847,0 0.15946,-0.01729 0.22437,-0.05151"
       style="fill:#231f20;fill-opacity:1;fill-rule:nonzero;stroke:none;stroke-width:0.352777"
       id="path906" />
    <path
       d="m 109.70025,40.968265 h 0.10266 v 0.271639 h -0.10266 z m 0,0.527403 h 0.10266 v 1.35502 h -0.10266 z"
       style="fill:#231f20;fill-opacity:1;fill-rule:nonzero;stroke:none;stroke-width:0.352777"
       id="path908" />
    <path
       d="m 110.10729,41.898831 c 0.0279,-0.08608 0.0698,-0.161572 0.12594,-0.226836 0.0557,-0.06491 0.12347,-0.116064 0.20285,-0.152753 0.079,-0.03704 0.16827,-0.05539 0.2674,-0.05539 0.0991,0 0.18909,0.01834 0.26917,0.05539 0.0801,0.03669 0.14782,0.08784 0.20285,0.152753 0.055,0.06526 0.0963,0.140758 0.12453,0.226836 0.0279,0.08608 0.0416,0.177447 0.0416,0.274108 0,0.09666 -0.0138,0.187678 -0.0416,0.27305 -0.0282,0.08502 -0.0699,0.160514 -0.12594,0.226484 -0.0557,0.06597 -0.12347,0.117475 -0.20285,0.154164 -0.0794,0.03704 -0.16863,0.05539 -0.26776,0.05539 -0.0991,0 -0.18873,-0.01834 -0.26881,-0.05539 -0.0804,-0.03669 -0.14746,-0.08784 -0.20144,-0.152753 -0.0543,-0.06491 -0.0956,-0.140759 -0.12453,-0.226836 -0.0289,-0.08608 -0.0434,-0.177448 -0.0434,-0.274109 0,-0.09666 0.0141,-0.18803 0.042,-0.274108 m 0.096,0.510117 c 0.0236,0.07479 0.0582,0.141111 0.10407,0.198966 0.0462,0.05821 0.1023,0.103717 0.16898,0.137231 0.0667,0.03316 0.14252,0.04974 0.22719,0.04974 0.085,0 0.16051,-0.01658 0.22719,-0.04974 0.0667,-0.03351 0.12312,-0.07902 0.16933,-0.137231 0.0459,-0.05786 0.0804,-0.124177 0.10407,-0.198966 0.0233,-0.07479 0.0349,-0.153459 0.0349,-0.236009 0,-0.08255 -0.0116,-0.161219 -0.0349,-0.236008 -0.0236,-0.07444 -0.0582,-0.140758 -0.10407,-0.198967 -0.0462,-0.05786 -0.10266,-0.103716 -0.16933,-0.13723 -0.0667,-0.03316 -0.14217,-0.05009 -0.22719,-0.05009 -0.0847,0 -0.16052,0.01693 -0.22719,0.05009 -0.0667,0.03351 -0.12277,0.07937 -0.16898,0.13723 -0.0459,0.05821 -0.0804,0.124531 -0.10407,0.198967 -0.0233,0.07479 -0.0353,0.153458 -0.0353,0.236008 0,0.08255 0.012,0.16122 0.0353,0.236009"
       style="fill:#231f20;fill-opacity:1;fill-rule:nonzero;stroke:none;stroke-width:0.352777"
       id="path912" />
    <path
       d="m 104.32688,45.151354 h -0.006 c -0.11324,0.214489 -0.29104,0.321733 -0.53269,0.321733 -0.1009,0 -0.18944,-0.0187 -0.26635,-0.05539 -0.0765,-0.03704 -0.1397,-0.08819 -0.18909,-0.154516 -0.0497,-0.06562 -0.0861,-0.140759 -0.10971,-0.225073 -0.0233,-0.08431 -0.0349,-0.174977 -0.0349,-0.271639 0,-0.210961 0.0526,-0.382411 0.15805,-0.513997 0.10548,-0.131939 0.25929,-0.197908 0.46108,-0.197908 0.11712,0 0.22331,0.02999 0.31785,0.08961 0.0945,0.05997 0.15981,0.141817 0.19579,0.245534 h 0.006 v -0.830793 h 0.10266 v 1.882422 h -0.10266 z m -0.2921,0.183092 c 0.0649,-0.03422 0.11889,-0.08079 0.16228,-0.1397 0.0434,-0.05856 0.0751,-0.125236 0.096,-0.198967 0.0208,-0.07373 0.031,-0.150283 0.031,-0.229306 0,-0.08079 -0.0102,-0.15875 -0.031,-0.233186 -0.0208,-0.07479 -0.0522,-0.141464 -0.0945,-0.200377 -0.0423,-0.05891 -0.0967,-0.105481 -0.16228,-0.1397 -0.066,-0.03457 -0.14217,-0.05151 -0.2286,-0.05151 -0.0882,0 -0.1658,0.01658 -0.23248,0.05009 -0.0667,0.03351 -0.121,0.07902 -0.16227,0.136878 -0.0416,0.05821 -0.0723,0.124531 -0.0921,0.19932 -0.0198,0.07479 -0.0296,0.154164 -0.0296,0.238477 0,0.08255 0.0102,0.160867 0.031,0.234598 0.0208,0.07408 0.0529,0.1397 0.096,0.197555 0.0434,0.05821 0.0977,0.10407 0.16369,0.137231 0.066,0.03351 0.14217,0.05009 0.2286,0.05009 0.0847,0 0.15945,-0.01729 0.22436,-0.05151"
       style="fill:#231f20;fill-opacity:1;fill-rule:nonzero;stroke:none;stroke-width:0.352777"
       id="path916" />
    <path
       d="m 104.79745,44.777022 c 0,0.172155 0.0444,0.316794 0.13406,0.433564 0.0892,0.117122 0.21484,0.17533 0.37712,0.17533 0.13158,0 0.24165,-0.03598 0.32984,-0.10795 0.0882,-0.07197 0.14429,-0.170392 0.16757,-0.295275 h 0.10302 c -0.0272,0.158045 -0.0924,0.2794 -0.19615,0.363714 -0.10372,0.08431 -0.23848,0.126647 -0.40428,0.126647 -0.19297,0 -0.34361,-0.06456 -0.45156,-0.193675 -0.1083,-0.129469 -0.16228,-0.293158 -0.16228,-0.491772 0,-0.09666 0.0131,-0.189089 0.0392,-0.276931 0.0261,-0.08784 0.0649,-0.166158 0.11607,-0.234597 0.0515,-0.06844 0.11606,-0.122414 0.19367,-0.161925 0.0773,-0.03986 0.16581,-0.05962 0.26494,-0.05962 0.10089,0 0.19014,0.01729 0.26776,0.05151 0.0772,0.03422 0.14181,0.08255 0.19332,0.144992 0.0515,0.06244 0.0896,0.134056 0.115,0.214842 0.0251,0.08079 0.0378,0.167922 0.0378,0.261055 l -0.003,0.02364 v 0.02646 z m 1.01953,-0.08714 c -0.002,-0.07197 -0.0145,-0.141112 -0.0378,-0.206728 -0.0236,-0.06597 -0.0568,-0.124531 -0.10019,-0.175331 -0.0434,-0.05115 -0.0963,-0.09137 -0.15945,-0.121355 -0.0631,-0.02999 -0.13335,-0.0448 -0.21096,-0.0448 -0.0741,0 -0.14147,0.01552 -0.20285,0.04621 -0.0614,0.03069 -0.11395,0.07232 -0.1584,0.125236 -0.0441,0.05256 -0.0787,0.111478 -0.10407,0.176742 -0.025,0.06491 -0.0406,0.131586 -0.0459,0.200025 z"
       style="fill:#231f20;fill-opacity:1;fill-rule:nonzero;stroke:none;stroke-width:0.352777"
       id="path920" />
    <path
       d="m 106.93116,44.078469 h 0.2921 v 0.184502 h 0.005 c 0.0416,-0.07549 0.10054,-0.131233 0.17709,-0.167216 0.0766,-0.03598 0.16193,-0.05433 0.25577,-0.05433 0.21096,0 0.37253,0.06844 0.48542,0.204258 0.11253,0.136525 0.16898,0.310092 0.16898,0.521053 0,0.09313 -0.0123,0.182033 -0.0367,0.267406 -0.0243,0.08502 -0.061,0.161219 -0.11077,0.227894 -0.0497,0.06703 -0.11324,0.119592 -0.1905,0.158045 -0.0776,0.0388 -0.16616,0.05821 -0.26529,0.05821 -0.0956,0 -0.18556,-0.01764 -0.27023,-0.05256 -0.0847,-0.03528 -0.15063,-0.0889 -0.19755,-0.160867 h -0.005 v 0.679803 h -0.30833 z m 0.97367,0.341489 c -0.0688,-0.09419 -0.16334,-0.141112 -0.28399,-0.141112 -0.1263,0 -0.22331,0.04304 -0.29069,0.129117 -0.0677,0.08608 -0.1016,0.203906 -0.1016,0.353131 0,0.140758 0.0353,0.255764 0.10548,0.345722 0.0702,0.08925 0.16581,0.134408 0.28681,0.134408 0.0667,0 0.12524,-0.01341 0.17568,-0.03986 0.0504,-0.02611 0.091,-0.06244 0.12171,-0.10795 0.0307,-0.04551 0.0529,-0.09701 0.0677,-0.154164 0.0141,-0.05715 0.0215,-0.116416 0.0215,-0.178152 0,-0.13335 -0.0342,-0.247298 -0.10266,-0.341136"
       style="fill:#231f20;fill-opacity:1;fill-rule:nonzero;stroke:none;stroke-width:0.352777"
       id="path924" />
    <path
       d="m 109.74629,45.138231 c 0,0.03704 0.006,0.06315 0.0162,0.07902 l 0.0568,0.02364 0.0758,-0.0053 v 0.208491 c -0.0254,0.0088 -0.0579,0.01658 -0.0974,0.02363 -0.0399,0.0071 -0.0723,0.01058 -0.0974,0.01058 -0.0667,0 -0.1203,-0.0127 -0.16087,-0.03845 -0.0406,-0.0254 -0.0663,-0.06773 -0.0773,-0.127706 -0.0575,0.05433 -0.13052,0.0956 -0.21907,0.123825 -0.0882,0.02822 -0.17674,0.04233 -0.26494,0.04233 -0.13511,0 -0.2487,-0.03492 -0.34078,-0.10407 -0.0917,-0.0695 -0.13794,-0.167569 -0.13794,-0.294216 0,-0.08079 0.0148,-0.147814 0.0448,-0.201436 0.0296,-0.05362 0.0699,-0.0949 0.12029,-0.123825 0.0504,-0.02928 0.10584,-0.05045 0.16616,-0.06456 0.0603,-0.01411 0.12947,-0.02575 0.20708,-0.03457 0.0307,-0.0053 0.0755,-0.01129 0.13512,-0.01834 0.10089,-0.01235 0.17356,-0.02858 0.21766,-0.04868 0.0441,-0.02011 0.0663,-0.06209 0.0663,-0.125236 0,-0.03704 -0.008,-0.06773 -0.0258,-0.09243 l -0.0677,-0.05644 c -0.0279,-0.01341 -0.0586,-0.02258 -0.0917,-0.02787 -0.0335,-0.0053 -0.0681,-0.0078 -0.10407,-0.0078 -0.0903,0 -0.16228,0.01799 -0.2166,0.05397 -0.054,0.03598 -0.0847,0.09031 -0.0917,0.162278 h -0.30832 c 0.005,-0.08467 0.0261,-0.156281 0.0621,-0.215195 0.036,-0.05856 0.084,-0.10548 0.14358,-0.140758 0.0593,-0.03528 0.12559,-0.06032 0.19861,-0.07514 0.073,-0.01517 0.14993,-0.02258 0.23107,-0.02258 0.0706,0 0.13899,0.0074 0.20567,0.02258 0.0667,0.01482 0.12665,0.0381 0.17992,0.06985 0.0529,0.03175 0.0956,0.07267 0.127,0.123825 0.0314,0.05115 0.0473,0.110773 0.0473,0.179211 z m -0.30833,-0.379589 c -0.0307,0.0194 -0.0663,0.03351 -0.10689,0.04233 -0.0402,0.0088 -0.0914,0.01658 -0.15275,0.02364 -0.0504,0.0053 -0.09,0.01058 -0.11889,0.01552 -0.0776,0.01235 -0.13899,0.03528 -0.18379,0.06879 -0.0452,0.03316 -0.0677,0.08608 -0.0677,0.158045 l 0.0272,0.08184 0.0702,0.05397 c 0.0289,0.01305 0.06,0.02293 0.0935,0.02893 0.0332,0.0063 0.0642,0.0092 0.0931,0.0092 0.036,0 0.0744,-0.0046 0.115,-0.01446 0.0406,-0.0095 0.0783,-0.02505 0.1136,-0.04621 0.0349,-0.02081 0.0635,-0.04763 0.085,-0.08008 0.0219,-0.03246 0.0325,-0.07161 0.0325,-0.117475 z"
       style="fill:#231f20;fill-opacity:1;fill-rule:nonzero;stroke:none;stroke-width:0.352777"
       id="path928" />
    <path
       d="m 110.08725,43.559066 h 0.30833 v 1.882422 h -0.30833 z"
       style="fill:#231f20;fill-opacity:1;fill-rule:nonzero;stroke:none;stroke-width:0.352777"
       id="path930" />
    <path
       d="m 111.90162,45.138231 c 0,0.03704 0.005,0.06315 0.0162,0.07902 l 0.0568,0.02364 0.0759,-0.0053 v 0.208491 c -0.0254,0.0088 -0.0579,0.01658 -0.0974,0.02363 -0.0399,0.0071 -0.0723,0.01058 -0.0974,0.01058 -0.0667,0 -0.1203,-0.0127 -0.16087,-0.03845 -0.0406,-0.0254 -0.0663,-0.06773 -0.0773,-0.127706 -0.0575,0.05433 -0.13052,0.0956 -0.21907,0.123825 -0.0882,0.02822 -0.17674,0.04233 -0.26494,0.04233 -0.13511,0 -0.24871,-0.03492 -0.34078,-0.10407 -0.0917,-0.0695 -0.13794,-0.167569 -0.13794,-0.294216 0,-0.08079 0.0148,-0.147814 0.0448,-0.201436 0.0296,-0.05362 0.0698,-0.0949 0.1203,-0.123825 0.0505,-0.02928 0.10583,-0.05045 0.16616,-0.06456 0.0603,-0.01411 0.12947,-0.02575 0.20708,-0.03457 0.0307,-0.0053 0.0755,-0.01129 0.13511,-0.01834 0.1009,-0.01235 0.17357,-0.02858 0.21767,-0.04868 0.0441,-0.02011 0.0663,-0.06209 0.0663,-0.125236 0,-0.03704 -0.008,-0.06773 -0.0258,-0.09243 l -0.0677,-0.05644 c -0.0279,-0.01341 -0.0586,-0.02258 -0.0917,-0.02787 -0.0335,-0.0053 -0.0681,-0.0078 -0.10407,-0.0078 -0.0903,0 -0.16228,0.01799 -0.21661,0.05397 -0.054,0.03598 -0.0847,0.09031 -0.0917,0.162278 h -0.30833 c 0.005,-0.08467 0.0261,-0.156281 0.0621,-0.215195 0.036,-0.05856 0.084,-0.10548 0.14323,-0.140758 0.0596,-0.03528 0.12594,-0.06032 0.19897,-0.07514 0.073,-0.01517 0.14993,-0.02258 0.23107,-0.02258 0.0702,0 0.13899,0.0074 0.20567,0.02258 0.0667,0.01482 0.12665,0.0381 0.17991,0.06985 0.0529,0.03175 0.0952,0.07267 0.127,0.123825 0.0314,0.05115 0.0473,0.110773 0.0473,0.179211 z m -0.30833,-0.379589 c -0.0307,0.0194 -0.0663,0.03351 -0.10689,0.04233 -0.0406,0.0088 -0.0914,0.01658 -0.15275,0.02364 -0.0505,0.0053 -0.09,0.01058 -0.11889,0.01552 -0.0776,0.01235 -0.13899,0.03528 -0.18379,0.06879 -0.0452,0.03316 -0.0677,0.08608 -0.0677,0.158045 l 0.0272,0.08184 0.0702,0.05397 c 0.0289,0.01305 0.06,0.02293 0.0931,0.02893 0.0335,0.0063 0.0646,0.0092 0.0935,0.0092 0.036,0 0.0744,-0.0046 0.115,-0.01446 0.0406,-0.0095 0.0783,-0.02505 0.1136,-0.04621 0.0349,-0.02081 0.0635,-0.04763 0.085,-0.08008 0.0219,-0.03246 0.0325,-0.07161 0.0325,-0.117475 z"
       style="fill:#231f20;fill-opacity:1;fill-rule:nonzero;stroke:none;stroke-width:0.352777"
       id="path934" />
    <path
       d="m 112.24248,43.559039 h 0.30832 v 0.69603 h 0.005 c 0.0416,-0.06491 0.1016,-0.116769 0.17992,-0.155575 0.0783,-0.03845 0.15734,-0.05785 0.23671,-0.05785 0.21097,0 0.37254,0.06809 0.48543,0.204258 0.11253,0.136172 0.16898,0.309739 0.16898,0.5207 0,0.09313 -0.0123,0.182386 -0.0367,0.267406 -0.0243,0.08537 -0.061,0.161219 -0.11078,0.228247 -0.0497,0.06668 -0.11324,0.119239 -0.1905,0.158044 -0.0776,0.03845 -0.16615,0.05786 -0.26528,0.05786 -0.11007,0 -0.20779,-0.01658 -0.29316,-0.05009 -0.0857,-0.03316 -0.14923,-0.09102 -0.19086,-0.173919 h -0.005 v 0.187325 h -0.2921 z m 0.97366,0.860777 c -0.0688,-0.09384 -0.16333,-0.141111 -0.28398,-0.141111 -0.1263,0 -0.22331,0.04304 -0.29069,0.12947 -0.0677,0.08573 -0.1016,0.203553 -0.1016,0.35313 0,0.140406 0.0353,0.255764 0.10548,0.34537 0.0702,0.08961 0.1658,0.134408 0.28681,0.134408 0.0667,0 0.12523,-0.01305 0.17568,-0.03951 0.0504,-0.02646 0.091,-0.06244 0.12171,-0.108303 0.0307,-0.04551 0.0529,-0.09701 0.0677,-0.154164 0.0141,-0.05715 0.0215,-0.116416 0.0215,-0.1778 0,-0.133702 -0.0342,-0.247297 -0.10266,-0.341489"
       style="fill:#231f20;fill-opacity:1;fill-rule:nonzero;stroke:none;stroke-width:0.352777"
       id="path938" />
    <path
       d="m 113.88663,44.078469 h 0.28928 v 0.263525 h 0.006 c 0.009,-0.03669 0.0261,-0.07302 0.0511,-0.10795 0.0254,-0.03528 0.0572,-0.06738 0.0963,-0.09631 0.0384,-0.02893 0.0804,-0.05221 0.12559,-0.06985 0.0452,-0.01764 0.09,-0.02646 0.13511,-0.02646 0.036,0 0.0684,0.0021 0.0974,0.0053 l 0.0191,0.0028 v 0.289983 l -0.03,-0.0053 c -0.0469,-0.0053 -0.0811,-0.0081 -0.10266,-0.0081 -0.11006,0 -0.20038,0.04163 -0.27164,0.124177 -0.0713,0.08255 -0.10689,0.196498 -0.10689,0.342548 v 0.648405 h -0.30833 z"
       style="fill:#231f20;fill-opacity:1;fill-rule:nonzero;stroke:none;stroke-width:0.352777"
       id="path942" />
    <path
       d="m 116.00954,45.138231 c 0,0.03704 0.005,0.06315 0.0162,0.07902 l 0.0568,0.02364 0.0759,-0.0053 v 0.208491 c -0.0254,0.0088 -0.0579,0.01658 -0.0974,0.02363 -0.0399,0.0071 -0.0723,0.01058 -0.0974,0.01058 -0.0667,0 -0.12029,-0.0127 -0.16086,-0.03845 -0.0406,-0.0254 -0.0663,-0.06773 -0.0773,-0.127706 -0.0575,0.05433 -0.13053,0.0956 -0.21908,0.123825 -0.0882,0.02822 -0.17674,0.04233 -0.26493,0.04233 -0.13512,0 -0.24871,-0.03492 -0.34079,-0.10407 -0.0921,-0.0695 -0.13793,-0.167569 -0.13793,-0.294216 0,-0.08079 0.0148,-0.147814 0.0448,-0.201436 0.0296,-0.05362 0.0699,-0.0949 0.12029,-0.123825 0.0504,-0.02928 0.10584,-0.05045 0.16616,-0.06456 0.0603,-0.01411 0.12947,-0.02575 0.20708,-0.03457 0.0307,-0.0053 0.0755,-0.01129 0.13512,-0.01834 0.10089,-0.01235 0.17356,-0.02858 0.21766,-0.04868 0.0441,-0.02011 0.0663,-0.06209 0.0663,-0.125236 0,-0.03704 -0.008,-0.06773 -0.0258,-0.09243 l -0.0677,-0.05644 c -0.0279,-0.01341 -0.0586,-0.02258 -0.0917,-0.02787 -0.0335,-0.0053 -0.0681,-0.0078 -0.10407,-0.0078 -0.0903,0 -0.16228,0.01799 -0.2166,0.05397 -0.054,0.03598 -0.0847,0.09031 -0.0917,0.162278 h -0.30833 c 0.005,-0.08467 0.0261,-0.156281 0.0621,-0.215195 0.036,-0.05856 0.084,-0.10548 0.14323,-0.140758 0.0596,-0.03528 0.12594,-0.06032 0.19896,-0.07514 0.073,-0.01517 0.14993,-0.02258 0.23107,-0.02258 0.0702,0 0.139,0.0074 0.20567,0.02258 0.0667,0.01482 0.12665,0.0381 0.17992,0.06985 0.0529,0.03175 0.0953,0.07267 0.127,0.123825 0.0314,0.05115 0.0473,0.110773 0.0473,0.179211 z m -0.30833,-0.379589 c -0.0307,0.0194 -0.0663,0.03351 -0.10689,0.04233 -0.0406,0.0088 -0.0914,0.01658 -0.15275,0.02364 -0.0504,0.0053 -0.09,0.01058 -0.11889,0.01552 -0.0776,0.01235 -0.13899,0.03528 -0.18379,0.06879 -0.0452,0.03316 -0.0677,0.08608 -0.0677,0.158045 l 0.0272,0.08184 0.0702,0.05397 c 0.0289,0.01305 0.06,0.02293 0.0931,0.02893 0.0335,0.0063 0.0646,0.0092 0.0935,0.0092 0.036,0 0.0744,-0.0046 0.115,-0.01446 0.0406,-0.0095 0.0783,-0.02505 0.1136,-0.04621 0.0349,-0.02081 0.0635,-0.04763 0.085,-0.08008 0.0219,-0.03246 0.0325,-0.07161 0.0325,-0.117475 z"
       style="fill:#231f20;fill-opacity:1;fill-rule:nonzero;stroke:none;stroke-width:0.352777"
       id="path946" />
    <path
       d="m 116.57469,45.003796 c 0.007,0.08255 0.0395,0.142875 0.0974,0.180622 0.0579,0.03775 0.13053,0.05645 0.21908,0.05645 0.0342,0 0.0684,-0.0021 0.10266,-0.0063 0.0342,-0.0046 0.0677,-0.01341 0.10018,-0.02646 0.0325,-0.01341 0.0586,-0.03175 0.0783,-0.05539 0.0198,-0.02364 0.0296,-0.05398 0.0296,-0.09102 -0.004,-0.05962 -0.0342,-0.102659 -0.0917,-0.129117 -0.0579,-0.02646 -0.1471,-0.05186 -0.26775,-0.07655 -0.0504,-0.01058 -0.0829,-0.01728 -0.0974,-0.02081 -0.0667,-0.01411 -0.12524,-0.02999 -0.17569,-0.04763 -0.0504,-0.01764 -0.0967,-0.04128 -0.13793,-0.07091 -0.0416,-0.02999 -0.0744,-0.06844 -0.0988,-0.115006 -0.0243,-0.04621 -0.0367,-0.103011 -0.0367,-0.170039 0,-0.0702 0.0176,-0.13088 0.0529,-0.18168 0.0353,-0.05115 0.0815,-0.09208 0.13934,-0.122767 0.0575,-0.03069 0.1203,-0.05256 0.18768,-0.06597 0.0677,-0.01305 0.13582,-0.01976 0.20426,-0.01976 0.15699,0 0.28575,0.03175 0.387,0.0949 0.054,0.03528 0.0981,0.07973 0.13229,0.13335 0.0342,0.05362 0.0557,0.117122 0.0649,0.191206 h -0.32173 c -0.0127,-0.06703 -0.0441,-0.113948 -0.0945,-0.141111 -0.0508,-0.02752 -0.1136,-0.04092 -0.18944,-0.04092 l -0.0811,0.0053 -0.0825,0.02117 -0.0649,0.04339 -0.0258,0.06985 c 0,0.05609 0.0289,0.09701 0.0868,0.122414 0.0575,0.02575 0.14781,0.0508 0.27022,0.07514 0.054,0.01235 0.0868,0.0194 0.0974,0.02117 0.0667,0.01588 0.12524,0.03246 0.17569,0.05009 0.0508,0.01764 0.097,0.04092 0.13934,0.06985 0.0423,0.02893 0.0759,0.06632 0.10019,0.112183 0.0243,0.04551 0.0363,0.100895 0.0363,0.166159 0,0.07726 -0.018,0.144286 -0.054,0.201436 -0.036,0.05715 -0.0843,0.103364 -0.14464,0.138641 -0.0603,0.03492 -0.1277,0.06103 -0.20143,0.07761 -0.0741,0.01658 -0.14887,0.02505 -0.22437,0.02505 -0.18415,0 -0.33267,-0.04057 -0.44626,-0.121356 -0.1136,-0.08079 -0.17145,-0.198613 -0.17322,-0.35313 z"
       style="fill:#231f20;fill-opacity:1;fill-rule:nonzero;stroke:none;stroke-width:0.352777"
       id="path950" />
  </g>
</svg>
