<?xml version="1.0" encoding="UTF-8" standalone="no"?>
<svg
   xmlns:dc="http://purl.org/dc/elements/1.1/"
   xmlns:cc="http://creativecommons.org/ns#"
   xmlns:rdf="http://www.w3.org/1999/02/22-rdf-syntax-ns#"
   xmlns:svg="http://www.w3.org/2000/svg"
   xmlns="http://www.w3.org/2000/svg"
   xmlns:sodipodi="http://sodipodi.sourceforge.net/DTD/sodipodi-0.dtd"
   xmlns:inkscape="http://www.inkscape.org/namespaces/inkscape"
   width="27.351566mm"
   height="26.662237mm"
   viewBox="0 0 27.351566 26.662237"
   version="1.1"
   id="svg1568"
   inkscape:version="1.0 (b51213c273, 2020-08-10)"
   sodipodi:docname="logoyellow.svg">
  <defs
     id="defs1562" />
  <sodipodi:namedview
     id="base"
     pagecolor="#ffffff"
     bordercolor="#666666"
     borderopacity="1.0"
     inkscape:pageopacity="0.0"
     inkscape:pageshadow="2"
     inkscape:zoom="0.35"
     inkscape:cx="265.97372"
     inkscape:cy="378.95676"
     inkscape:document-units="mm"
     inkscape:current-layer="layer1"
     inkscape:document-rotation="0"
     showgrid="false"
     inkscape:window-width="1920"
     inkscape:window-height="963"
     inkscape:window-x="0"
     inkscape:window-y="25"
     inkscape:window-maximized="1" />
  <metadata
     id="metadata1565">
    <rdf:RDF>
      <cc:Work
         rdf:about="">
        <dc:format>image/svg+xml</dc:format>
        <dc:type
           rdf:resource="http://purl.org/dc/dcmitype/StillImage" />
        <dc:title></dc:title>
      </cc:Work>
    </rdf:RDF>
  </metadata>
  <g
     inkscape:label="Layer 1"
     inkscape:groupmode="layer"
     id="layer1"
     transform="translate(-33.949216,-47.901024)">
    <path
       d="m 61.300783,61.232143 c 0,7.362472 -6.122812,13.331118 -13.675783,13.331118 -7.552973,0 -13.675784,-5.968646 -13.675784,-13.331118 0,-7.362472 6.122811,-13.331119 13.675784,-13.331119 7.552971,0 13.675783,5.968647 13.675783,13.331119"
       style="fill:#f6ba1a;fill-opacity:1;fill-rule:nonzero;stroke:none;stroke-width:0.352777"
       id="path1056" />
    <path
       d="m 38.42191,62.920052 h 0.255058 c 0.13582,0 0.232481,-0.02822 0.290336,-0.08431 0.05786,-0.05644 0.08678,-0.150636 0.08678,-0.28328 V 59.98812 c 0,-0.125941 -0.02893,-0.216958 -0.08678,-0.273402 -0.05786,-0.05609 -0.154516,-0.08431 -0.290336,-0.08431 h -0.203905 v -0.745773 h 1.274233 l 0.07161,0.676275 c 0.183445,-0.278341 0.41275,-0.485422 0.68827,-0.621241 0.275166,-0.13582 0.609952,-0.203906 1.004358,-0.203906 0.298803,0 0.557036,0.06632 0.7747,0.198614 0.217311,0.132997 0.380647,0.321381 0.489303,0.566561 0.170038,-0.264936 0.378883,-0.458611 0.627238,-0.581378 0.248003,-0.122413 0.5588,-0.183797 0.932744,-0.183797 0.557389,0 0.959908,0.13582 1.208264,0.407459 0.248003,0.271638 0.37218,0.67945 0.37218,1.222375 v 2.186869 c 0,0.125942 0.03069,0.218369 0.09172,0.278342 0.06138,0.05927 0.15628,0.08925 0.285397,0.08925 h 0.28575 V 63.6556 h -1.73355 v -3.290005 c 0,-0.331259 -0.06456,-0.566562 -0.193675,-0.705556 -0.129117,-0.139347 -0.346428,-0.208844 -0.652286,-0.208844 -0.312913,0 -0.559505,0.08643 -0.739422,0.258586 -0.179916,0.172508 -0.270227,0.424039 -0.270227,0.755297 v 2.087386 c 0,0.132644 0.02575,0.226836 0.07655,0.28328 0.05115,0.05609 0.140758,0.08431 0.270228,0.08431 h 0.275169 v 0.73554 h -1.631245 v -3.260019 c 0,-0.324556 -0.06456,-0.563034 -0.193675,-0.715786 -0.129469,-0.1524 -0.333022,-0.2286 -0.611717,-0.2286 -0.340077,0 -0.601486,0.09313 -0.78493,0.278341 -0.183797,0.185561 -0.275519,0.4572 -0.275519,0.81527 v 2.007658 c 0,0.132644 0.0254,0.226836 0.07655,0.28328 0.0508,0.05609 0.140758,0.08431 0.270227,0.08431 h 0.275167 V 63.65559 H 38.42191 Z"
       style="fill:#ffffff;fill-opacity:1;fill-rule:nonzero;stroke:none;stroke-width:0.352777"
       id="path1060" />
    <path
       d="m 47.781846,63.138625 c -0.421569,-0.443795 -0.632178,-1.063272 -0.632178,-1.858786 0,-0.801511 0.209198,-1.425928 0.626887,-1.87325 0.418042,-0.447323 1.04528,-0.670631 1.881363,-0.670631 0.836084,0 1.46297,0.223308 1.881012,0.670631 0.418041,0.447322 0.627238,1.071739 0.627238,1.87325 0,0.795514 -0.210961,1.414991 -0.632177,1.858786 -0.42157,0.444147 -1.047044,0.666044 -1.876073,0.666044 -0.829732,0 -1.454855,-0.221897 -1.876072,-0.666044 m 2.966861,-0.51682 c 0.237773,-0.291394 0.357011,-0.738716 0.357011,-1.341966 0,-0.609248 -0.119238,-1.061509 -0.357011,-1.356431 -0.237771,-0.294922 -0.601486,-0.442383 -1.090789,-0.442383 -0.489655,0 -0.851604,0.147461 -1.08585,0.442383 -0.234597,0.294922 -0.351719,0.747183 -0.351719,1.356431 0,0.60325 0.117122,1.050572 0.351719,1.341966 0.234245,0.291747 0.596195,0.437445 1.08585,0.437445 0.489303,0 0.853018,-0.145698 1.090789,-0.437445"
       style="fill:#ffffff;fill-opacity:1;fill-rule:nonzero;stroke:none;stroke-width:0.352777"
       id="path1064" />
    <path
       d="m 53.603701,63.397123 c -0.285397,-0.271639 -0.428272,-0.66922 -0.428272,-1.192742 v -2.603853 h -0.795161 v -0.715786 h 0.795161 v -1.073149 l 1.080911,-0.337961 v 1.41111 h 1.468261 v 0.715786 H 54.25634 v 2.67335 c 0,0.291747 0.05609,0.500592 0.168276,0.626534 0.111829,0.125588 0.283633,0.188383 0.514702,0.188383 0.299155,0 0.526697,-0.06279 0.682977,-0.188383 v -0.427567 h 0.928159 v 0.755297 c -0.224367,0.185561 -0.469194,0.328083 -0.734131,0.427567 -0.265289,0.09913 -0.57785,0.148872 -0.938036,0.148872 -0.564445,0 -0.989188,-0.135819 -1.274586,-0.407458"
       style="fill:#ffffff;fill-opacity:1;fill-rule:nonzero;stroke:none;stroke-width:0.352777"
       id="path1068" />
  </g>
</svg>
