<?xml version="1.0" encoding="UTF-8" standalone="no"?>
<svg
   xmlns:dc="http://purl.org/dc/elements/1.1/"
   xmlns:cc="http://creativecommons.org/ns#"
   xmlns:rdf="http://www.w3.org/1999/02/22-rdf-syntax-ns#"
   xmlns:svg="http://www.w3.org/2000/svg"
   xmlns="http://www.w3.org/2000/svg"
   xmlns:sodipodi="http://sodipodi.sourceforge.net/DTD/sodipodi-0.dtd"
   xmlns:inkscape="http://www.inkscape.org/namespaces/inkscape"
   width="41.70504mm"
   height="40.653858mm"
   viewBox="0 0 42.296646 40.653859"
   version="1.1"
   id="svg3141"
   inkscape:version="1.0 (b51213c273, 2020-08-10)"
   sodipodi:docname="logoblue.svg">
  <defs
     id="defs3135" />
  <sodipodi:namedview
     id="base"
     pagecolor="#ffffff"
     bordercolor="#666666"
     borderopacity="1.0"
     inkscape:pageopacity="0.0"
     inkscape:pageshadow="2"
     inkscape:zoom="1.979899"
     inkscape:cx="82.776704"
     inkscape:cy="125.10554"
     inkscape:document-units="mm"
     inkscape:current-layer="layer1"
     inkscape:document-rotation="0"
     showgrid="false"
     scale-x="1"
     viewbox-width="42.89664"
     fit-margin-left="0"
     fit-margin-top="0"
     fit-margin-right="0"
     fit-margin-bottom="0"
     inkscape:window-width="1261"
     inkscape:window-height="962"
     inkscape:window-x="0"
     inkscape:window-y="25"
     inkscape:window-maximized="0" />
  <metadata
     id="metadata3138">
    <rdf:RDF>
      <cc:Work
         rdf:about="">
        <dc:format>image/svg+xml</dc:format>
        <dc:type
           rdf:resource="http://purl.org/dc/dcmitype/StillImage" />
        <dc:title></dc:title>
      </cc:Work>
    </rdf:RDF>
  </metadata>
  <g
     inkscape:label="Layer 1"
     inkscape:groupmode="layer"
     id="layer1"
     transform="translate(-50.937148,-20.285586)">
    <path
       d="m 93.233792,40.605421 c 0,11.385551 -9.468557,20.615276 -21.148322,20.615276 -11.679766,0 -21.148322,-9.229725 -21.148322,-20.615276 0,-11.385549 9.468556,-20.615274 21.148322,-20.615274 11.679765,0 21.148322,9.229725 21.148322,20.615274"
       style="fill:#50afb9;fill-opacity:1;fill-rule:nonzero;stroke:none;stroke-width:0.352777"
       id="path598"
       sodipodi:nodetypes="csssc" />
    <path
       d="m 57.583749,42.675643 h 0.394405 c 0.210256,0 0.359833,-0.04374 0.449086,-0.130528 0.08925,-0.08678 0.134409,-0.232833 0.134409,-0.43815 V 38.14139 c 0,-0.19438 -0.04516,-0.335138 -0.134409,-0.422627 -0.08925,-0.08678 -0.23883,-0.130528 -0.449086,-0.130528 h -0.315383 v -1.152878 h 1.970969 l 0.110067,1.045281 c 0.283986,-0.430389 0.638528,-0.750359 1.064683,-0.960614 0.42545,-0.209903 0.942975,-0.315031 1.552928,-0.315031 0.462491,0 0.861836,0.102659 1.198033,0.30727 0.336197,0.205316 0.588433,0.497064 0.757061,0.875947 0.262467,-0.409575 0.585611,-0.709083 0.969433,-0.898878 0.383823,-0.189442 0.864306,-0.284339 1.442861,-0.284339 0.861484,0 1.484489,0.210256 1.868312,0.630061 0.383469,0.420159 0.57538,1.050573 0.57538,1.890536 v 3.381375 c 0,0.194734 0.04727,0.337961 0.141817,0.430389 0.0949,0.09207 0.242005,0.138289 0.441678,0.138289 h 0.441324 v 1.137356 H 67.517265 V 38.72559 c 0,-0.512233 -0.100189,-0.875947 -0.299861,-1.091494 -0.199673,-0.215194 -0.53587,-0.322792 -1.008945,-0.322792 -0.483658,0 -0.864658,0.133703 -1.143352,0.399698 -0.278342,0.266699 -0.417689,0.656166 -0.417689,1.168399 v 3.227564 c 0,0.205317 0.03951,0.351367 0.118533,0.43815 0.07867,0.08678 0.217664,0.130528 0.417689,0.130528 h 0.42545 v 1.137356 h -2.522361 v -5.041195 c 0,-0.502003 -0.100189,-0.871008 -0.299861,-1.107016 -0.199672,-0.235303 -0.515056,-0.353484 -0.945797,-0.353484 -0.525992,0 -0.930275,0.143934 -1.213909,0.430389 -0.284338,0.287161 -0.426155,0.70732 -0.426155,1.260828 v 3.104444 c 0,0.205317 0.03951,0.351367 0.118533,0.43815 0.07867,0.08678 0.218017,0.130528 0.418042,0.130528 h 0.42545 v 1.137356 h -3.579283 z"
       style="fill:#ffffff;fill-opacity:1;fill-rule:nonzero;stroke:none;stroke-width:0.352777"
       id="path602"
       sodipodi:nodetypes="csssscsccccsscccscsscscccscscsscscccscsssscscccc" />
    <path
       d="m 72.058044,43.013606 c -0.651933,-0.686153 -0.9779,-1.644297 -0.9779,-2.874081 0,-1.239661 0.323498,-2.205214 0.969786,-2.897364 0.646642,-0.691444 1.616075,-1.037166 2.909359,-1.037166 1.292578,0 2.262364,0.345722 2.909005,1.037166 0.64629,0.69215 0.969434,1.657703 0.969434,2.897364 0,1.229784 -0.325967,2.187928 -0.977548,2.874081 -0.651934,0.686858 -1.618897,1.029758 -2.900891,1.029758 -1.283053,0 -2.250017,-0.3429 -2.901245,-1.029758 m 4.587875,-0.799042 c 0.367948,-0.45085 0.552099,-1.142647 0.552099,-2.075039 0,-0.942622 -0.184151,-1.641827 -0.552099,-2.097969 -0.367947,-0.455789 -0.929922,-0.683683 -1.68663,-0.683683 -0.757414,0 -1.31692,0.227894 -1.679575,0.683683 -0.362303,0.456142 -0.543631,1.155347 -0.543631,2.097969 0,0.932392 0.181328,1.624189 0.543631,2.075039 0.362655,0.451203 0.922161,0.676275 1.679575,0.676275 0.756708,0 1.318683,-0.225072 1.68663,-0.676275"
       style="fill:#ffffff;fill-opacity:1;fill-rule:nonzero;stroke:none;stroke-width:0.352777"
       id="path606"
       sodipodi:nodetypes="cscscscsccscscscsc" />
    <path
       d="M 81.060969,43.413338 C 80.619292,42.99318 80.398804,42.378641 80.398804,41.569016 v -4.026958 h -1.229783 v -1.106664 h 1.229783 v -1.659819 l 1.671108,-0.522464 v 2.182283 h 2.270832 v 1.106664 h -2.270832 v 4.134555 c 0,0.45085 0.08678,0.773995 0.26035,0.968375 0.173215,0.194381 0.438857,0.291748 0.796221,0.291748 0.462138,0 0.814211,-0.09737 1.056217,-0.291748 v -0.661105 h 1.4351 v 1.168047 c -0.347133,0.287161 -0.725313,0.507294 -1.13524,0.661106 -0.410281,0.153458 -0.893939,0.230363 -1.450623,0.230363 -0.87277,0 -1.529291,-0.209902 -1.970968,-0.630061"
       style="fill:#ffffff;fill-opacity:1;fill-rule:nonzero;stroke:none;stroke-width:0.352777"
       id="path610"
       sodipodi:nodetypes="csccccccccccscscccccsc" />
  </g>
</svg>
