<?xml version="1.0" encoding="UTF-8" standalone="no"?>
<svg
   xmlns:dc="http://purl.org/dc/elements/1.1/"
   xmlns:cc="http://creativecommons.org/ns#"
   xmlns:rdf="http://www.w3.org/1999/02/22-rdf-syntax-ns#"
   xmlns:svg="http://www.w3.org/2000/svg"
   xmlns="http://www.w3.org/2000/svg"
   xmlns:sodipodi="http://sodipodi.sourceforge.net/DTD/sodipodi-0.dtd"
   xmlns:inkscape="http://www.inkscape.org/namespaces/inkscape"
   width="43.315113mm"
   height="42.223621mm"
   viewBox="0 0 43.315113 42.223621"
   version="1.1"
   id="svg3204"
   inkscape:version="1.0 (b51213c273, 2020-08-10)"
   sodipodi:docname="logoblue2.svg">
  <defs
     id="defs3198" />
  <sodipodi:namedview
     id="base"
     pagecolor="#ffffff"
     bordercolor="#666666"
     borderopacity="1.0"
     inkscape:pageopacity="0.0"
     inkscape:pageshadow="2"
     inkscape:zoom="0.98994949"
     inkscape:cx="166.86105"
     inkscape:cy="-23.789134"
     inkscape:document-units="mm"
     inkscape:current-layer="layer1"
     inkscape:document-rotation="0"
     showgrid="false"
     inkscape:window-width="1261"
     inkscape:window-height="962"
     inkscape:window-x="0"
     inkscape:window-y="25"
     inkscape:window-maximized="0" />
  <metadata
     id="metadata3201">
    <rdf:RDF>
      <cc:Work
         rdf:about="">
        <dc:format>image/svg+xml</dc:format>
        <dc:type
           rdf:resource="http://purl.org/dc/dcmitype/StillImage" />
        <dc:title></dc:title>
      </cc:Work>
    </rdf:RDF>
  </metadata>
  <g
     inkscape:label="Layer 1"
     inkscape:groupmode="layer"
     id="layer1"
     transform="translate(-60.928727,-10.960533)">
    <path
       d="m 103.65276,32.072343 c 0,11.333339 -9.431866,20.52073 -21.066476,20.52073 -11.63461,0 -21.066477,-9.187391 -21.066477,-20.52073 0,-11.333338 9.431867,-20.52073 21.066477,-20.52073 11.63461,0 21.066476,9.187392 21.066476,20.52073 z"
       style="fill:none;stroke:#50afb9;stroke-width:1.18216;stroke-linecap:butt;stroke-linejoin:miter;stroke-miterlimit:10;stroke-dasharray:none;stroke-opacity:1"
       id="path614"
       sodipodi:nodetypes="sssss" />
    <path
       d="m 71.350277,29.945765 v 0.194381 H 68.802869 V 26.48431 h 2.521303 v 0.194733 h -2.290234 v 1.464381 h 2.153709 v 0.19438 h -2.153709 v 1.607961 z"
       style="fill:#231f20;fill-opacity:1;fill-rule:nonzero;stroke:none;stroke-width:0.352777"
       id="path618"
       sodipodi:nodetypes="ccccccccccccc" />
    <path
       d="m 71.80208,29.264585 c 0.01376,0.239183 0.104069,0.426861 0.27058,0.563033 0.166159,0.136878 0.373592,0.204964 0.6223,0.204964 0.1016,0 0.200378,-0.0085 0.296687,-0.0254 0.09631,-0.01729 0.187325,-0.04621 0.27305,-0.08714 0.08573,-0.04092 0.155222,-0.09807 0.207786,-0.17145 0.05256,-0.07338 0.07867,-0.164747 0.07867,-0.274108 0,-0.102306 -0.02293,-0.18662 -0.06844,-0.253295 -0.04551,-0.06668 -0.106891,-0.120297 -0.183797,-0.161219 -0.07691,-0.04092 -0.160867,-0.07338 -0.251883,-0.09701 -0.09137,-0.02399 -0.206728,-0.04974 -0.346781,-0.07691 l -0.07338,-0.01552 c -0.140405,-0.02716 -0.262114,-0.05644 -0.365125,-0.08714 -0.103364,-0.03069 -0.197908,-0.07232 -0.283633,-0.125236 -0.08573,-0.05292 -0.154164,-0.123825 -0.204964,-0.212725 -0.0508,-0.08855 -0.0762,-0.196144 -0.0762,-0.322439 0,-0.122766 0.02787,-0.228953 0.08396,-0.317147 0.05609,-0.0889 0.131586,-0.159808 0.226131,-0.212725 0.09419,-0.05292 0.198614,-0.09066 0.312561,-0.112889 0.113594,-0.02187 0.231775,-0.03316 0.354542,-0.03316 0.304447,0 0.546805,0.06844 0.727427,0.204611 0.18027,0.136878 0.270228,0.348545 0.270228,0.635 H 73.47248 c -0.0039,-0.2286 -0.07726,-0.397228 -0.220839,-0.506942 -0.143581,-0.109008 -0.335845,-0.163688 -0.577497,-0.163688 -0.09843,0 -0.192617,0.0095 -0.283987,0.02787 -0.09102,0.0194 -0.173919,0.04798 -0.249413,0.08749 -0.07514,0.03916 -0.134762,0.09208 -0.178506,0.15875 -0.04374,0.06632 -0.06562,0.143933 -0.06562,0.232833 0,0.09208 0.02187,0.170745 0.06562,0.235656 0.04374,0.06491 0.103364,0.116769 0.178506,0.155928 0.07549,0.03951 0.154869,0.0702 0.239183,0.09208 0.08396,0.02222 0.19438,0.04868 0.330905,0.07937 0.03492,0.0071 0.06279,0.01199 0.08396,0.01552 0.160866,0.03069 0.294922,0.06138 0.401813,0.09243 0.106539,0.03034 0.202142,0.07302 0.286103,0.127706 0.08431,0.05468 0.149931,0.127 0.19685,0.217664 0.04763,0.09031 0.07126,0.202141 0.07126,0.335139 0,0.13335 -0.03175,0.24765 -0.09454,0.343252 -0.06315,0.0956 -0.146403,0.17145 -0.249414,0.227895 -0.103717,0.05609 -0.216253,0.09631 -0.339019,0.120297 -0.122414,0.02364 -0.246945,0.03563 -0.372887,0.03563 -0.318558,0 -0.578555,-0.08149 -0.779991,-0.245534 -0.201436,-0.163689 -0.305506,-0.394405 -0.312561,-0.691444 z"
       style="fill:#231f20;fill-opacity:1;fill-rule:nonzero;stroke:none;stroke-width:0.352777"
       id="path622" />
    <path
       d="m 75.226389,27.677334 h -0.588081 v 1.838325 c 0,0.187677 0.04269,0.310444 0.128411,0.368652 0.08608,0.05786 0.23742,0.08678 0.454378,0.08678 v 0.16898 c -0.0071,0 -0.0314,0.0018 -0.07338,0.0053 h -0.06844 c -0.09454,0 -0.179564,-0.0085 -0.254705,-0.0254 -0.0755,-0.01729 -0.141817,-0.04904 -0.19932,-0.0949 -0.05785,-0.04621 -0.103716,-0.111125 -0.136877,-0.194734 -0.03316,-0.08326 -0.04974,-0.188383 -0.04974,-0.314677 v -1.838326 h -0.499181 v -0.168628 h 0.499181 v -0.819503 h 0.199672 v 0.819503 h 0.588081 z"
       style="fill:#231f20;fill-opacity:1;fill-rule:nonzero;stroke:none;stroke-width:0.352777"
       id="path626" />
    <path
       d="m 77.731887,30.14025 h -0.199672 v -0.563033 h -0.01058 c -0.06632,0.191205 -0.189794,0.3429 -0.370063,0.455436 -0.18027,0.112889 -0.379237,0.16898 -0.596195,0.16898 -0.220486,0 -0.398286,-0.03739 -0.5334,-0.112536 -0.134761,-0.07514 -0.232833,-0.168275 -0.293864,-0.279047 -0.06138,-0.110772 -0.09878,-0.220133 -0.112889,-0.327731 -0.01411,-0.107597 -0.02117,-0.222602 -0.02117,-0.345722 v -1.627716 h 0.199672 v 1.663699 c 0,0.0956 0.0071,0.187678 0.02117,0.276578 0.01376,0.0889 0.04515,0.178153 0.09454,0.268817 0.04904,0.09031 0.126647,0.165453 0.233539,0.225072 0.106892,0.05997 0.245886,0.08961 0.417689,0.08961 0.297391,0 0.533753,-0.1016 0.709083,-0.3048 0.174978,-0.202848 0.262467,-0.468136 0.262467,-0.795867 v -1.423105 h 0.199672 z"
       style="fill:#231f20;fill-opacity:1;fill-rule:nonzero;stroke:none;stroke-width:0.352777"
       id="path630"
       sodipodi:nodetypes="cccccsccssccscccsssccc" />
    <path
       d="m 80.405272,29.577042 h -0.01058 c -0.220486,0.41663 -0.565503,0.624769 -1.034697,0.624769 -0.196144,0 -0.368653,-0.03598 -0.517172,-0.107597 -0.148872,-0.07161 -0.271639,-0.17145 -0.367595,-0.299861 -0.09666,-0.127706 -0.167569,-0.273403 -0.213077,-0.437444 -0.04551,-0.163689 -0.06809,-0.339373 -0.06809,-0.527403 0,-0.409575 0.102306,-0.742245 0.30727,-0.998361 0.204611,-0.255764 0.503414,-0.384175 0.89535,-0.384175 0.227542,0 0.433564,0.05821 0.617361,0.174272 0.183797,0.116064 0.310797,0.274814 0.380647,0.47625 h 0.01058 v -1.613253 h 0.199672 v 3.655836 h -0.199672 z m -0.567267,0.355953 c 0.125942,-0.06668 0.231069,-0.156986 0.31503,-0.271639 0.08396,-0.113947 0.146403,-0.243064 0.18662,-0.386292 0.04022,-0.14358 0.06032,-0.2921 0.06032,-0.445558 0,-0.156986 -0.02011,-0.307975 -0.06032,-0.45332 -0.04022,-0.144991 -0.1016,-0.274461 -0.183797,-0.388761 -0.08255,-0.114652 -0.187678,-0.204964 -0.315384,-0.271639 -0.127705,-0.06668 -0.275519,-0.09984 -0.443794,-0.09984 -0.17145,0 -0.322086,0.03281 -0.451556,0.09737 -0.129469,0.06491 -0.234597,0.153811 -0.315383,0.265994 -0.08043,0.112889 -0.140053,0.242006 -0.178506,0.386998 -0.03845,0.144991 -0.05785,0.299508 -0.05785,0.463197 0,0.160514 0.02046,0.312208 0.06068,0.455789 0.04022,0.14358 0.102305,0.271286 0.186266,0.383822 0.08431,0.112889 0.190148,0.201789 0.317853,0.266347 0.127706,0.06491 0.275872,0.09737 0.443795,0.09737 0.164747,0 0.310091,-0.03351 0.436033,-0.09984"
       style="fill:#231f20;fill-opacity:1;fill-rule:nonzero;stroke:none;stroke-width:0.352777"
       id="path634" />
    <path
       d="m 81.287498,26.48445 h 0.199672 v 0.527755 h -0.199672 z m 0,1.024114 h 0.199672 v 2.631369 h -0.199672 z"
       style="fill:#231f20;fill-opacity:1;fill-rule:nonzero;stroke:none;stroke-width:0.352777"
       id="path636" />
    <path
       d="m 82.078073,28.291942 c 0.05433,-0.167216 0.13582,-0.313972 0.244122,-0.440266 0.108656,-0.126295 0.239889,-0.225425 0.394053,-0.297039 0.154164,-0.07161 0.327378,-0.107598 0.519995,-0.107598 0.192616,0 0.366889,0.03598 0.522464,0.107598 0.155927,0.07161 0.287161,0.170744 0.394052,0.297039 0.106892,0.126294 0.187325,0.27305 0.241653,0.440266 0.05433,0.16757 0.08149,0.345017 0.08149,0.532695 0,0.187677 -0.02716,0.364419 -0.08149,0.529872 -0.05433,0.165453 -0.135819,0.311855 -0.244122,0.439914 -0.108656,0.128411 -0.239889,0.228247 -0.394053,0.299508 -0.154164,0.07197 -0.327378,0.107597 -0.519994,0.107597 -0.192617,0 -0.366889,-0.03563 -0.522464,-0.107597 -0.155928,-0.07126 -0.286456,-0.170392 -0.391584,-0.296686 -0.104775,-0.126294 -0.185561,-0.27305 -0.2413,-0.440267 -0.05609,-0.167216 -0.08431,-0.344664 -0.08431,-0.532341 0,-0.187678 0.02716,-0.365125 0.08149,-0.532695 m 0.18662,0.9906 c 0.04551,0.145345 0.112889,0.274109 0.202141,0.386645 0.08925,0.112536 0.198614,0.201436 0.328084,0.266347 0.129469,0.06491 0.276577,0.09701 0.441325,0.09701 0.164747,0 0.311502,-0.0321 0.441325,-0.09701 0.129469,-0.06491 0.23883,-0.153811 0.328083,-0.266347 0.08925,-0.112536 0.156633,-0.2413 0.202494,-0.386645 0.04516,-0.144991 0.06809,-0.297744 0.06809,-0.457905 0,-0.160867 -0.02293,-0.313267 -0.06809,-0.458259 -0.04586,-0.144991 -0.113241,-0.274108 -0.202494,-0.386997 -0.08925,-0.112183 -0.198614,-0.201083 -0.328083,-0.265994 -0.129823,-0.06456 -0.276578,-0.09737 -0.441325,-0.09737 -0.164748,0 -0.311856,0.03281 -0.441325,0.09737 -0.12947,0.06491 -0.238831,0.153811 -0.328084,0.265994 -0.08925,0.112889 -0.156633,0.242006 -0.202141,0.386997 -0.04551,0.144992 -0.06844,0.297392 -0.06844,0.458259 0,0.160161 0.827426,0.312914 0.872934,0.457905"
       style="fill:#231f20;fill-opacity:1;fill-rule:nonzero;stroke:none;stroke-width:0.352777"
       id="path640"
       sodipodi:nodetypes="ccsscscssccscccsccssscscscccsccssc" />
    <path
       d="m 70.851413,34.609062 h -0.01058 c -0.220486,0.416631 -0.565503,0.62477 -1.034697,0.62477 -0.196144,0 -0.368653,-0.03598 -0.517172,-0.107598 -0.148872,-0.07161 -0.271639,-0.17145 -0.367595,-0.299861 -0.09666,-0.127705 -0.167569,-0.273402 -0.213077,-0.437444 -0.04551,-0.163689 -0.06809,-0.339372 -0.06809,-0.52705 0,-0.409928 0.102305,-0.742597 0.307269,-0.998714 0.204611,-0.255764 0.503414,-0.384175 0.89535,-0.384175 0.227542,0 0.433564,0.05821 0.617361,0.174272 0.183797,0.116064 0.310797,0.274814 0.380647,0.47625 h 0.01058 v -1.6129 h 0.199672 v 3.655484 h -0.199672 z m -0.567266,0.355953 c 0.125941,-0.06668 0.231069,-0.156986 0.31503,-0.271639 0.08431,-0.113947 0.146403,-0.243064 0.18662,-0.386292 0.04022,-0.14358 0.06032,-0.291747 0.06032,-0.445205 0,-0.157339 -0.02011,-0.308328 -0.06032,-0.453672 -0.04022,-0.144992 -0.1016,-0.274461 -0.183798,-0.388761 -0.08255,-0.114653 -0.187325,-0.204964 -0.315383,-0.271639 -0.127706,-0.06632 -0.275519,-0.09984 -0.443794,-0.09984 -0.17145,0 -0.322087,0.03281 -0.451556,0.09737 -0.129469,0.06491 -0.234597,0.153811 -0.315383,0.266348 -0.08043,0.112536 -0.140053,0.241652 -0.178506,0.386644 -0.03845,0.144992 -0.05786,0.299508 -0.05786,0.46355 0,0.160161 0.02046,0.311855 0.06068,0.455436 0.04022,0.143581 0.102306,0.271286 0.186267,0.383822 0.08431,0.112889 0.190147,0.201789 0.317853,0.266347 0.127705,0.06491 0.275872,0.09737 0.443794,0.09737 0.164747,0 0.310092,-0.03351 0.436034,-0.09984"
       style="fill:#231f20;fill-opacity:1;fill-rule:nonzero;stroke:none;stroke-width:0.352777"
       id="path644" />
    <path
       d="m 71.765284,33.882059 c 0,0.334433 0.08678,0.615244 0.259997,0.842433 0.173567,0.226836 0.417689,0.340078 0.73272,0.340078 0.255411,0 0.469194,-0.0695 0.640644,-0.20955 0.171803,-0.140053 0.280106,-0.331258 0.325967,-0.573617 h 0.199319 c -0.05256,0.30727 -0.179564,0.542925 -0.380647,0.706614 -0.201436,0.164042 -0.463197,0.245886 -0.785283,0.245886 -0.37465,0 -0.667103,-0.125589 -0.877358,-0.376414 -0.209903,-0.250825 -0.315031,-0.569383 -0.315031,-0.954969 0,-0.187678 0.0254,-0.366889 0.0762,-0.537633 0.0508,-0.170392 0.126294,-0.322792 0.225778,-0.455789 0.09984,-0.132997 0.225072,-0.237772 0.375708,-0.314678 0.150283,-0.07691 0.322086,-0.115358 0.514703,-0.115358 0.195792,0 0.369358,0.03316 0.519994,0.09984 0.150636,0.06668 0.275873,0.160514 0.375356,0.281869 0.09984,0.121003 0.174272,0.259997 0.223308,0.416984 0.04904,0.156986 0.07338,0.325966 0.07338,0.506941 l -0.0049,0.04621 v 0.05115 z m 1.980142,-0.168981 c -0.0035,-0.140052 -0.02822,-0.274108 -0.07338,-0.401814 -0.04586,-0.128058 -0.110419,-0.241652 -0.19438,-0.34043 -0.08431,-0.09913 -0.187325,-0.1778 -0.310092,-0.235656 -0.122414,-0.05821 -0.258939,-0.08714 -0.409575,-0.08714 -0.143581,0 -0.274814,0.02999 -0.394053,0.08996 -0.118886,0.05962 -0.221544,0.140405 -0.307269,0.242711 -0.08573,0.102658 -0.153106,0.216958 -0.202142,0.343252 -0.04904,0.126295 -0.07867,0.256117 -0.08925,0.389114 z"
       style="fill:#231f20;fill-opacity:1;fill-rule:nonzero;stroke:none;stroke-width:0.352777"
       id="path648" />
    <path
       d="m 75.9094,32.525204 h 0.567267 v 0.358422 h 0.01023 c 0.08079,-0.146755 0.195439,-0.255058 0.344311,-0.325261 0.148873,-0.0695 0.313973,-0.104775 0.496359,-0.104775 0.409575,0 0.7239,0.132292 0.942622,0.396875 0.219075,0.264583 0.328436,0.601486 0.328436,1.011414 0,0.180975 -0.02363,0.353836 -0.07091,0.519289 -0.04727,0.165453 -0.119239,0.313266 -0.215548,0.443089 -0.09631,0.129822 -0.21978,0.232127 -0.370063,0.306916 -0.150637,0.07514 -0.322087,0.112889 -0.514703,0.112889 -0.185914,0 -0.360892,-0.03422 -0.525286,-0.102305 -0.164748,-0.06844 -0.292453,-0.172509 -0.38347,-0.312561 h -0.01058 v 1.3208 h -0.598664 z m 1.890889,0.663222 c -0.13335,-0.182739 -0.317147,-0.274108 -0.551392,-0.274108 -0.24518,0 -0.433564,0.08361 -0.564797,0.251178 -0.131233,0.166863 -0.197203,0.395816 -0.197203,0.6858 0,0.27305 0.06844,0.496711 0.204964,0.670983 0.136525,0.173919 0.322086,0.261055 0.557036,0.261055 0.12947,0 0.243064,-0.02575 0.341136,-0.07691 0.09807,-0.05115 0.176742,-0.121356 0.236361,-0.210256 0.05962,-0.08855 0.103364,-0.188383 0.131234,-0.299508 0.02822,-0.110772 0.04198,-0.225778 0.04198,-0.345369 0,-0.259292 -0.06632,-0.480484 -0.199319,-0.66287"
       style="fill:#231f20;fill-opacity:1;fill-rule:nonzero;stroke:none;stroke-width:0.352777"
       id="path652" />
    <path
       d="m 81.376962,34.583557 c 0,0.07161 0.01058,0.122766 0.03175,0.153458 0.02081,0.03069 0.0575,0.04621 0.110066,0.04621 0.05609,0 0.105128,-0.0035 0.147109,-0.01023 v 0.404284 c -0.04904,0.01728 -0.112184,0.03245 -0.189089,0.04586 -0.07691,0.01411 -0.140053,0.02081 -0.189089,0.02081 -0.12947,0 -0.233892,-0.02469 -0.312561,-0.07444 -0.07867,-0.04939 -0.128411,-0.131939 -0.149578,-0.248003 -0.112183,0.105834 -0.254,0.185914 -0.42545,0.240595 -0.17145,0.05433 -0.343253,0.08184 -0.514703,0.08184 -0.262466,0 -0.483305,-0.06738 -0.661811,-0.202141 -0.178505,-0.134762 -0.267758,-0.325262 -0.267758,-0.571148 0,-0.156986 0.02858,-0.287514 0.08643,-0.391583 0.05786,-0.104069 0.13582,-0.18415 0.233892,-0.240594 0.09772,-0.05645 0.205669,-0.09807 0.322792,-0.125589 0.117475,-0.02716 0.25153,-0.04939 0.402166,-0.06632 0.05927,-0.01058 0.146756,-0.02222 0.262467,-0.03598 0.196144,-0.02399 0.336903,-0.05539 0.422628,-0.09454 0.08608,-0.03916 0.128764,-0.120298 0.128764,-0.243417 0,-0.07126 -0.01658,-0.131233 -0.05009,-0.178858 -0.03316,-0.04798 -0.07655,-0.08467 -0.131233,-0.11042 -0.05433,-0.0254 -0.113595,-0.04339 -0.178506,-0.05362 -0.06456,-0.01023 -0.131939,-0.01552 -0.202141,-0.01552 -0.174978,0 -0.315031,0.03528 -0.420159,0.105128 -0.105128,0.0702 -0.164747,0.174977 -0.178505,0.31503 h -0.599017 c 0.01058,-0.164041 0.0508,-0.303036 0.121003,-0.417336 0.06985,-0.114653 0.162983,-0.205669 0.278342,-0.274108 0.115711,-0.06844 0.244122,-0.11677 0.385938,-0.145697 0.141817,-0.02928 0.291748,-0.04375 0.449439,-0.04375 0.136172,0 0.269522,0.01447 0.398992,0.04375 0.129469,0.02893 0.245886,0.07408 0.34925,0.135466 0.103011,0.06174 0.185561,0.141817 0.246944,0.240595 0.06103,0.09913 0.09172,0.215194 0.09172,0.348191 z m -0.598664,-0.737306 c -0.05962,0.03739 -0.128764,0.06491 -0.207434,0.08184 -0.07867,0.01729 -0.1778,0.03246 -0.297039,0.04586 -0.09772,0.01058 -0.174977,0.02081 -0.230716,0.03104 -0.150989,0.02363 -0.269875,0.06844 -0.357364,0.132997 -0.08749,0.06491 -0.131233,0.167217 -0.131233,0.30727 0,0.06138 0.01729,0.1143 0.05256,0.15875 0.03493,0.04445 0.08043,0.07937 0.136524,0.104775 0.05574,0.02575 0.116417,0.04445 0.181328,0.05644 0.06456,0.01199 0.124884,0.01799 0.180975,0.01799 0.0702,0 0.144639,-0.0092 0.223309,-0.02822 0.07902,-0.0187 0.1524,-0.04868 0.220486,-0.08961 0.06844,-0.04092 0.123472,-0.09278 0.165452,-0.156281 0.04198,-0.06279 0.06315,-0.138641 0.06315,-0.227541 z"
       style="fill:#231f20;fill-opacity:1;fill-rule:nonzero;stroke:none;stroke-width:0.352777"
       id="path656" />
    <path
       d="m 82.038914,31.516472 h 0.598664 v 3.655836 h -0.598664 z"
       style="fill:#231f20;fill-opacity:1;fill-rule:nonzero;stroke:none;stroke-width:0.352777"
       id="path658" />
    <path
       d="m 85.563059,34.583557 c 0,0.07161 0.01058,0.122766 0.03175,0.153458 0.02082,0.03069 0.0575,0.04621 0.110067,0.04621 0.05609,0 0.105127,-0.0035 0.147108,-0.01023 v 0.404284 c -0.04904,0.01728 -0.112183,0.03245 -0.189089,0.04586 -0.07691,0.01411 -0.140053,0.02081 -0.189089,0.02081 -0.129469,0 -0.233892,-0.02469 -0.312561,-0.07444 -0.07867,-0.04939 -0.128411,-0.131939 -0.149578,-0.248003 -0.112183,0.105834 -0.254,0.185914 -0.42545,0.240595 -0.17145,0.05433 -0.343253,0.08184 -0.514703,0.08184 -0.262819,0 -0.483305,-0.06738 -0.661811,-0.202141 -0.178505,-0.134762 -0.267758,-0.325262 -0.267758,-0.571148 0,-0.156986 0.02858,-0.287514 0.08643,-0.391583 0.05785,-0.104069 0.135819,-0.18415 0.233891,-0.240594 0.09772,-0.05645 0.20567,-0.09807 0.322792,-0.125589 0.117475,-0.02716 0.25153,-0.04939 0.402167,-0.06632 0.05927,-0.01058 0.146755,-0.02222 0.262466,-0.03598 0.196145,-0.02399 0.336903,-0.05539 0.422628,-0.09454 0.08608,-0.03916 0.128764,-0.120298 0.128764,-0.243417 0,-0.07126 -0.01658,-0.131233 -0.05009,-0.178858 -0.03316,-0.04798 -0.07691,-0.08467 -0.131233,-0.11042 -0.05433,-0.0254 -0.113594,-0.04339 -0.178505,-0.05362 -0.06456,-0.01023 -0.132292,-0.01552 -0.202142,-0.01552 -0.174978,0 -0.315031,0.03528 -0.420158,0.105128 -0.105128,0.0702 -0.164748,0.174977 -0.178506,0.31503 h -0.599021 c 0.01058,-0.164041 0.0508,-0.303036 0.121003,-0.417336 0.06985,-0.114653 0.162984,-0.205669 0.278342,-0.274108 0.115711,-0.06844 0.244122,-0.11677 0.385939,-0.145697 0.141816,-0.02928 0.291747,-0.04375 0.449086,-0.04375 0.136525,0 0.269522,0.01447 0.399344,0.04375 0.12947,0.02893 0.245886,0.07408 0.34925,0.135466 0.103011,0.06174 0.185561,0.141817 0.246945,0.240595 0.06103,0.09913 0.09172,0.215194 0.09172,0.348191 z m -0.598664,-0.737306 c -0.05962,0.03739 -0.128764,0.06491 -0.207433,0.08184 -0.07867,0.01729 -0.1778,0.03246 -0.297039,0.04586 -0.09772,0.01058 -0.174978,0.02081 -0.23107,0.03104 -0.150636,0.02363 -0.269522,0.06844 -0.357011,0.132997 -0.08749,0.06491 -0.131233,0.167217 -0.131233,0.30727 0,0.06138 0.01729,0.1143 0.05256,0.15875 0.03493,0.04445 0.08043,0.07937 0.136525,0.104775 0.05574,0.02575 0.116416,0.04445 0.180975,0.05644 0.06491,0.01199 0.125236,0.01799 0.181328,0.01799 0.0702,0 0.144638,-0.0092 0.223308,-0.02822 0.07867,-0.0187 0.1524,-0.04868 0.220486,-0.08961 0.06844,-0.04092 0.123472,-0.09278 0.165453,-0.156281 0.04198,-0.06279 0.06315,-0.138641 0.06315,-0.227541 z"
       style="fill:#231f20;fill-opacity:1;fill-rule:nonzero;stroke:none;stroke-width:0.352777"
       id="path662" />
    <path
       d="m 86.225009,31.516472 h 0.598664 v 1.351845 h 0.01058 c 0.08043,-0.126295 0.19685,-0.227189 0.34925,-0.301978 0.1524,-0.07514 0.305506,-0.112889 0.459668,-0.112889 0.409575,0 0.7239,0.132644 0.942623,0.396875 0.219075,0.264583 0.328436,0.601486 0.328436,1.011414 0,0.180975 -0.024,0.354189 -0.07091,0.519641 -0.04727,0.165453 -0.119237,0.312914 -0.215545,0.442737 -0.09631,0.129822 -0.219782,0.232127 -0.370065,0.307269 -0.150635,0.07479 -0.32244,0.112536 -0.515056,0.112536 -0.213429,0 -0.403225,-0.03245 -0.569736,-0.09701 -0.166158,-0.06526 -0.28963,-0.177447 -0.370416,-0.337961 h -0.01023 v 0.363361 h -0.567264 z m 1.890889,1.671814 c -0.13335,-0.182386 -0.317148,-0.274108 -0.551391,-0.274108 -0.245181,0 -0.433564,0.08361 -0.564798,0.251178 -0.131233,0.166863 -0.197202,0.395816 -0.197202,0.685799 0,0.273403 0.06844,0.496712 0.204964,0.670984 0.136525,0.173919 0.322086,0.261055 0.557036,0.261055 0.129116,0 0.243065,-0.0254 0.341135,-0.07691 0.09807,-0.05115 0.176742,-0.121003 0.236363,-0.209903 0.05962,-0.08855 0.10301,-0.188383 0.131233,-0.299508 0.02822,-0.111125 0.04198,-0.225778 0.04198,-0.345723 0,-0.259291 -0.06632,-0.48013 -0.199319,-0.662869"
       style="fill:#231f20;fill-opacity:1;fill-rule:nonzero;stroke:none;stroke-width:0.352777"
       id="path666" />
    <path
       d="m 89.418283,32.525204 h 0.561975 v 0.512233 h 0.01058 c 0.01765,-0.07161 0.0508,-0.141816 0.09984,-0.210255 0.04903,-0.06809 0.111125,-0.130175 0.186618,-0.18662 0.07514,-0.05644 0.156634,-0.1016 0.244123,-0.135819 0.08749,-0.03422 0.174977,-0.05115 0.262467,-0.05115 0.0702,0 0.13335,0.0035 0.189087,0.01023 l 0.03704,0.0053 v 0.563034 l -0.05785,-0.01023 c -0.09137,-0.01023 -0.157692,-0.01552 -0.199673,-0.01552 -0.213783,0 -0.389819,0.08043 -0.527757,0.240595 -0.138641,0.160513 -0.207785,0.382411 -0.207785,0.665691 v 1.259417 h -0.598665 z"
       style="fill:#231f20;fill-opacity:1;fill-rule:nonzero;stroke:none;stroke-width:0.352777"
       id="path670" />
    <path
       d="m 93.54141,34.583557 c 0,0.07161 0.01058,0.122766 0.03175,0.153458 0.02082,0.03069 0.0575,0.04621 0.110067,0.04621 0.05609,0 0.105129,-0.0035 0.147108,-0.01023 v 0.404284 c -0.04903,0.01728 -0.112183,0.03245 -0.189087,0.04586 -0.07691,0.01411 -0.140055,0.02081 -0.18909,0.02081 -0.129469,0 -0.233892,-0.02469 -0.31256,-0.07444 -0.07867,-0.04939 -0.128413,-0.131939 -0.14958,-0.248003 -0.112183,0.105834 -0.254,0.185914 -0.42545,0.240595 -0.17145,0.05433 -0.343252,0.08184 -0.514702,0.08184 -0.262818,0 -0.483306,-0.06738 -0.66181,-0.202141 -0.178506,-0.134762 -0.267758,-0.325262 -0.267758,-0.571148 0,-0.156986 0.02858,-0.287514 0.08643,-0.391583 0.05786,-0.104069 0.135821,-0.18415 0.233891,-0.240594 0.09772,-0.05645 0.205671,-0.09807 0.322792,-0.125589 0.117475,-0.02716 0.251531,-0.04939 0.402167,-0.06632 0.05927,-0.01058 0.146756,-0.02222 0.262466,-0.03598 0.196146,-0.02399 0.336905,-0.05539 0.42263,-0.09454 0.08608,-0.03916 0.128762,-0.120298 0.128762,-0.243417 0,-0.07126 -0.01659,-0.131233 -0.05009,-0.178858 -0.03316,-0.04798 -0.07691,-0.08467 -0.131233,-0.11042 -0.05433,-0.0254 -0.113948,-0.04339 -0.178506,-0.05362 -0.06456,-0.01023 -0.132292,-0.01552 -0.202142,-0.01552 -0.174977,0 -0.315029,0.03528 -0.420158,0.105128 -0.105127,0.0702 -0.164746,0.174977 -0.178504,0.31503 h -0.599017 c 0.01058,-0.164041 0.0508,-0.303036 0.121002,-0.417336 0.06985,-0.114653 0.162983,-0.205669 0.278342,-0.274108 0.11571,-0.06844 0.244123,-0.11677 0.385939,-0.145697 0.141817,-0.02928 0.291746,-0.04375 0.449086,-0.04375 0.136525,0 0.269523,0.01447 0.399343,0.04375 0.129471,0.02893 0.245888,0.07408 0.34925,0.135466 0.103013,0.06174 0.185563,0.141817 0.246946,0.240595 0.06103,0.09913 0.09172,0.215194 0.09172,0.348191 z m -0.598662,-0.737306 c -0.05962,0.03739 -0.128765,0.06491 -0.207434,0.08184 -0.07867,0.01729 -0.1778,0.03246 -0.297039,0.04586 -0.09772,0.01058 -0.174977,0.02081 -0.231069,0.03104 -0.150638,0.02363 -0.269523,0.06844 -0.357013,0.132997 -0.08749,0.06491 -0.131233,0.167217 -0.131233,0.30727 0,0.06138 0.01728,0.1143 0.05257,0.15875 0.03492,0.04445 0.08043,0.07937 0.136525,0.104775 0.05574,0.02575 0.116416,0.04445 0.180975,0.05644 0.06491,0.01199 0.125235,0.01799 0.181327,0.01799 0.0702,0 0.144639,-0.0092 0.223308,-0.02822 0.07867,-0.0187 0.1524,-0.04868 0.220488,-0.08961 0.06844,-0.04092 0.12347,-0.09278 0.165452,-0.156281 0.04198,-0.06279 0.06315,-0.138641 0.06315,-0.227541 z"
       style="fill:#231f20;fill-opacity:1;fill-rule:nonzero;stroke:none;stroke-width:0.352777"
       id="path674" />
    <path
       d="m 94.639042,34.322503 c 0.0141,0.160161 0.07691,0.277283 0.18909,0.350661 0.112183,0.07338 0.253648,0.110067 0.42545,0.110067 0.06632,0 0.132998,-0.0042 0.199673,-0.0127 0.06632,-0.0085 0.131233,-0.02575 0.194027,-0.05115 0.06315,-0.02611 0.113948,-0.06138 0.1524,-0.107597 0.03881,-0.04621 0.05786,-0.105128 0.05786,-0.176742 -0.0071,-0.116064 -0.06667,-0.199672 -0.178506,-0.250825 -0.112184,-0.05151 -0.285399,-0.100895 -0.519994,-0.14852 -0.09807,-0.02046 -0.161221,-0.03422 -0.18909,-0.04092 -0.129823,-0.02752 -0.243416,-0.05821 -0.34149,-0.09243 -0.09807,-0.03387 -0.187325,-0.08008 -0.267758,-0.137936 -0.08078,-0.05821 -0.144285,-0.132644 -0.191558,-0.222955 -0.04763,-0.08996 -0.07091,-0.200378 -0.07091,-0.3302 0,-0.136525 0.03387,-0.254353 0.102307,-0.353131 0.06809,-0.09878 0.158398,-0.178505 0.270581,-0.238125 0.111829,-0.05997 0.233537,-0.102305 0.364771,-0.128058 0.131233,-0.0254 0.263525,-0.03845 0.396523,-0.03845 0.3048,0 0.554918,0.06138 0.751417,0.184503 0.104775,0.06809 0.1905,0.154517 0.257175,0.258586 0.06668,0.104069 0.108301,0.227894 0.125941,0.371122 h -0.624768 c -0.02469,-0.129822 -0.08608,-0.220839 -0.183798,-0.274108 -0.09842,-0.05292 -0.22084,-0.07938 -0.367949,-0.07938 -0.04903,0 -0.1016,0.0035 -0.157337,0.01058 -0.05609,0.0067 -0.109714,0.02011 -0.160514,0.04092 -0.05045,0.02011 -0.09278,0.04833 -0.125942,0.08431 -0.03316,0.03598 -0.04974,0.08114 -0.04974,0.13582 0,0.109008 0.05574,0.188383 0.167923,0.238125 0.112184,0.04939 0.287161,0.09807 0.525286,0.145697 0.105126,0.02399 0.168275,0.03775 0.189089,0.04092 0.129469,0.03069 0.243417,0.0635 0.341487,0.09737 0.09807,0.03422 0.188032,0.07937 0.27023,0.135819 0.08255,0.05609 0.14746,0.128764 0.194379,0.217664 0.04727,0.08855 0.07091,0.196145 0.07091,0.322439 0,0.150283 -0.03493,0.280811 -0.104775,0.391583 -0.0702,0.110773 -0.163687,0.200731 -0.281162,0.268817 -0.117475,0.06809 -0.24765,0.118533 -0.391231,0.150989 -0.143582,0.03246 -0.288925,0.04868 -0.436034,0.04868 -0.35701,0 -0.645935,-0.07832 -0.866775,-0.235655 -0.220485,-0.156986 -0.332668,-0.385586 -0.335843,-0.6858 z"
       style="fill:#231f20;fill-opacity:1;fill-rule:nonzero;stroke:none;stroke-width:0.352777"
       id="path678" />
  </g>
</svg>
