<?xml version="1.0" encoding="UTF-8" standalone="no"?>
<svg
   xmlns:dc="http://purl.org/dc/elements/1.1/"
   xmlns:cc="http://creativecommons.org/ns#"
   xmlns:rdf="http://www.w3.org/1999/02/22-rdf-syntax-ns#"
   xmlns:svg="http://www.w3.org/2000/svg"
   xmlns="http://www.w3.org/2000/svg"
   xmlns:sodipodi="http://sodipodi.sourceforge.net/DTD/sodipodi-0.dtd"
   xmlns:inkscape="http://www.inkscape.org/namespaces/inkscape"
   width="206.27031"
   height="38.053192"
   viewBox="0 0 54.575687 10.06824"
   version="1.1"
   id="svg1332"
   inkscape:version="1.0 (b51213c273, 2020-08-10)"
   sodipodi:docname="logo.svg">
  <defs
     id="defs1326" />
  <sodipodi:namedview
     id="base"
     pagecolor="#ffffff"
     bordercolor="#666666"
     borderopacity="1.0"
     inkscape:pageopacity="0.0"
     inkscape:pageshadow="2"
     inkscape:zoom="1.979899"
     inkscape:cx="387.9961"
     inkscape:cy="28.117761"
     inkscape:document-units="mm"
     inkscape:current-layer="layer1"
     inkscape:document-rotation="0"
     showgrid="false"
     inkscape:window-width="1920"
     inkscape:window-height="963"
     inkscape:window-x="0"
     inkscape:window-y="25"
     inkscape:window-maximized="1"
     fit-margin-left="15"
     fit-margin-top="0"
     fit-margin-right="15"
     fit-margin-bottom="0"
     units="px" />
  <metadata
     id="metadata1329">
    <rdf:RDF>
      <cc:Work
         rdf:about="">
        <dc:format>image/svg+xml</dc:format>
        <dc:type
           rdf:resource="http://purl.org/dc/dcmitype/StillImage" />
        <dc:title></dc:title>
      </cc:Work>
    </rdf:RDF>
  </metadata>
  <g
     inkscape:label="Layer 1"
     inkscape:groupmode="layer"
     id="layer1"
     transform="translate(-0.3372859,-2.6521768)">
    <path
       d="m 4.3060359,10.917867 h 0.37712 c 0.201083,0 0.344311,-0.0427 0.430036,-0.12806 0.08502,-0.0854 0.128058,-0.2286 0.128058,-0.43004 V 6.4682768 c 0,-0.19085 -0.04304,-0.32914 -0.128058,-0.41487 -0.08572,-0.0854 -0.228953,-0.12805 -0.430036,-0.12805 h -0.301625 v -1.13136 h 1.885244 l 0.105834,1.02552 c 0.271286,-0.42227 0.610658,-0.73625 1.018116,-0.94262 0.407106,-0.20602 0.902406,-0.30903 1.485547,-0.30903 0.4423844,0 0.8244424,0.10054 1.1465281,0.30162 0.321381,0.20108 0.563033,0.48789 0.7239,0.85972 0.251178,-0.40217 0.560564,-0.69603 0.927807,-0.8823 0.366889,-0.18591 0.826911,-0.27904 1.380066,-0.27904 0.824442,0 1.41993,0.20602 1.787172,0.61842 0.366889,0.41239 0.550686,1.03081 0.550686,1.85525 v 3.3182302 c 0,0.19121 0.04516,0.33197 0.13582,0.42228 0.09031,0.0907 0.231069,0.13582 0.422275,0.13582 h 0.422275 v 1.11618 H 13.808459 V 7.0415368 c 0,-0.5027 -0.0956,-0.85972 -0.286455,-1.07103 -0.191206,-0.21131 -0.512939,-0.31679 -0.9652,-0.31679 -0.462845,0 -0.827264,0.13088 -1.093612,0.39229 -0.2667,0.2614 -0.399697,0.64346 -0.399697,1.14617 v 3.1675902 c 0,0.20144 0.03775,0.34467 0.113241,0.43004 0.07514,0.0854 0.208492,0.12806 0.399697,0.12806 h 0.407107 v 1.11618 H 9.5701863 V 7.0866968 c 0,-0.49248 -0.0956,-0.85443 -0.286455,-1.08585 -0.191206,-0.23142 -0.4928314,-0.34713 -0.9052284,-0.34713 -0.503061,0 -0.889706,0.14111 -1.161345,0.42227 -0.271638,0.28187 -0.407105,0.69392 -0.407105,1.23684 v 3.0469402 c 0,0.20144 0.03739,0.34467 0.112889,0.43004 0.07549,0.0854 0.208844,0.12806 0.399697,0.12806 h 0.407458 v 1.11618 h -3.424061 z"
       style="fill:#231f20;fill-opacity:1;fill-rule:nonzero;stroke:none;stroke-width:0.352777"
       id="path392" />
    <path
       d="m 18.152495,11.249687 c -0.623711,-0.67345 -0.935214,-1.6139602 -0.935214,-2.8204602 0,-1.21673 0.309033,-2.16464 0.927806,-2.84339 0.618419,-0.67874 1.545872,-1.01812 2.782711,-1.01812 1.236839,0 2.164644,0.33938 2.783064,1.01812 0.618419,0.67875 0.927452,1.62666 0.927452,2.84339 0,1.2065 -0.311855,2.1470102 -0.935214,2.8204602 -0.623358,0.6738 -1.548694,1.01071 -2.775302,1.01071 -1.226961,0 -2.151945,-0.33691 -2.775303,-1.01071 m 4.389261,-0.78423 c 0.351719,-0.44238 0.527756,-1.1211202 0.527756,-2.0362302 0,-0.92498 -0.176037,-1.61149 -0.527756,-2.05916 -0.352072,-0.44733 -0.890058,-0.67099 -1.613958,-0.67099 -0.7239,0 -1.259417,0.22366 -1.60655,0.67099 -0.346781,0.44767 -0.520347,1.13418 -0.520347,2.05916 0,0.91511 0.173566,1.5938502 0.520347,2.0362302 0.347133,0.44239 0.88265,0.66358 1.60655,0.66358 0.7239,0 1.261886,-0.22119 1.613958,-0.66358"
       style="fill:#231f20;fill-opacity:1;fill-rule:nonzero;stroke:none;stroke-width:0.352777"
       id="path396" />
    <path
       d="m 26.765211,11.642007 c -0.42227,-0.4124 -0.63323,-1.01565 -0.63323,-1.8101002 v -3.95182 h -1.176519 v -1.0862 h 1.176519 v -1.62877 l 1.59878,-0.51294 v 2.14171 h 2.17206 v 1.0862 h -2.17206 v 4.0573 c 0,0.4427402 0.0829,0.7595302 0.24871,0.9503802 0.16581,0.19121 0.41981,0.28646 0.76165,0.28646 0.44238,0 0.77929,-0.0953 1.01071,-0.28646 v -0.64876 h 1.37266 v 1.14653 c -0.33197,0.28152 -0.69392,0.49777 -1.08621,0.64841 -0.39193,0.15099 -0.85478,0.22648 -1.38747,0.22648 -0.83503,0 -1.46332,-0.20637 -1.8856,-0.61842"
       style="fill:#231f20;fill-opacity:1;fill-rule:nonzero;stroke:none;stroke-width:0.352777"
       id="path400" />
    <path
       d="m 34.698581,8.1768468 v 0.14323 h -1.82915 v -2.6924 h 1.8101 v 0.14323 h -1.64394 v 1.07879 h 1.54587 v 0.14323 h -1.54587 v 1.18392 z"
       style="fill:#231f20;fill-opacity:1;fill-rule:nonzero;stroke:none;stroke-width:0.352777"
       id="path404" />
    <path
       d="m 35.022821,7.6752368 c 0.01,0.17603 0.0748,0.31432 0.19438,0.41487 0.11924,0.10054 0.26811,0.15098 0.44662,0.15098 0.073,0 0.14393,-0.006 0.21308,-0.019 0.0691,-0.0123 0.1344,-0.0339 0.19614,-0.0642 0.0617,-0.03 0.11148,-0.072 0.14887,-0.1263 0.0378,-0.054 0.0568,-0.121 0.0568,-0.20179 0,-0.0751 -0.0166,-0.13723 -0.049,-0.18661 -0.0328,-0.0487 -0.0769,-0.0885 -0.13194,-0.11854 -0.0554,-0.0303 -0.11571,-0.0543 -0.18132,-0.072 -0.0653,-0.0173 -0.14817,-0.0363 -0.24871,-0.0564 l -0.0529,-0.0113 c -0.10055,-0.0201 -0.18803,-0.0416 -0.26176,-0.0642 -0.0744,-0.0226 -0.14217,-0.0533 -0.20391,-0.0924 -0.0617,-0.0388 -0.11077,-0.091 -0.14711,-0.15628 -0.0363,-0.0653 -0.0547,-0.14464 -0.0547,-0.23777 0,-0.0903 0.0201,-0.16828 0.0603,-0.23354 0.0402,-0.0653 0.0945,-0.11748 0.16228,-0.15664 0.0681,-0.0388 0.14252,-0.0667 0.22437,-0.0829 0.0815,-0.0162 0.16651,-0.0247 0.2547,-0.0247 0.21872,0 0.39264,0.0504 0.52211,0.15098 0.12947,0.10055 0.19438,0.25647 0.19438,0.46779 h -0.14358 c -0.002,-0.16863 -0.055,-0.29281 -0.1584,-0.37359 -0.10301,-0.0804 -0.2413,-0.12065 -0.41451,-0.12065 -0.0706,0 -0.13829,0.007 -0.2039,0.0208 -0.0653,0.0138 -0.12489,0.0353 -0.17886,0.0642 -0.0543,0.0289 -0.097,0.0677 -0.12841,0.11677 -0.0314,0.049 -0.0469,0.10618 -0.0469,0.17145 0,0.0681 0.0155,0.12594 0.0469,0.17356 0.0314,0.048 0.0741,0.0861 0.12841,0.11501 0.054,0.0289 0.11112,0.0515 0.17145,0.0677 0.0603,0.0166 0.1397,0.036 0.23777,0.0586 l 0.06,0.0113 c 0.11571,0.0229 0.21167,0.0452 0.28857,0.0681 0.0769,0.0226 0.14535,0.054 0.20567,0.0942 0.0603,0.0402 0.10725,0.0938 0.14147,0.16016 0.0339,0.0667 0.0508,0.14887 0.0508,0.24695 0,0.0981 -0.0226,0.18238 -0.0681,0.25294 -0.0452,0.0702 -0.10478,0.12629 -0.17886,0.16757 -0.0741,0.0416 -0.15523,0.0713 -0.24342,0.0889 -0.0878,0.0173 -0.1771,0.0261 -0.26776,0.0261 -0.2286,0 -0.41522,-0.0603 -0.55986,-0.18097 -0.14464,-0.12065 -0.21943,-0.29034 -0.22436,-0.50906 z"
       style="fill:#231f20;fill-opacity:1;fill-rule:nonzero;stroke:none;stroke-width:0.352777"
       id="path408" />
    <path
       d="m 37.481611,6.5063068 h -0.42227 v 1.35396 c 0,0.13794 0.0307,0.2286 0.0921,0.27129 0.0617,0.043 0.17039,0.0642 0.32632,0.0642 v 0.12453 l -0.0526,0.004 h -0.049 c -0.0681,0 -0.12912,-0.006 -0.1831,-0.0187 -0.054,-0.0127 -0.10195,-0.0356 -0.14322,-0.0699 -0.0416,-0.0339 -0.0744,-0.0815 -0.0981,-0.14322 -0.024,-0.0617 -0.0356,-0.139 -0.0356,-0.23178 v -1.35396 h -0.35842 v -0.12453 h 0.35842 v -0.60325 h 0.14323 v 0.60325 h 0.42227 z"
       style="fill:#231f20;fill-opacity:1;fill-rule:nonzero;stroke:none;stroke-width:0.352777"
       id="path412" />
    <path
       d="m 39.280351,8.3201468 h -0.14322 v -0.41487 h -0.008 c -0.0476,0.14076 -0.13617,0.25259 -0.26564,0.33585 -0.12947,0.0829 -0.27235,0.12418 -0.42827,0.12418 -0.1584,0 -0.28575,-0.0275 -0.38277,-0.0829 -0.0967,-0.055 -0.16722,-0.12382 -0.21096,-0.20531 -0.0441,-0.0818 -0.0713,-0.16228 -0.0811,-0.24166 -0.0102,-0.079 -0.0152,-0.16369 -0.0152,-0.25435 v -1.19944 h 0.14358 v 1.2259 c 0,0.0702 0.005,0.13829 0.0148,0.20355 0.01,0.0653 0.0328,0.13123 0.0681,0.19791 0.0349,0.0667 0.091,0.12206 0.16757,0.16616 0.0769,0.0437 0.17674,0.066 0.29986,0.066 0.21378,0 0.38347,-0.0751 0.50906,-0.22437 0.12559,-0.14958 0.18873,-0.34502 0.18873,-0.58632 v -1.0488 h 0.14323 z"
       style="fill:#231f20;fill-opacity:1;fill-rule:nonzero;stroke:none;stroke-width:0.352777"
       id="path416" />
    <path
       d="m 41.199641,7.9053468 h -0.007 c -0.1584,0.30657 -0.40605,0.46003 -0.74295,0.46003 -0.14076,0 -0.26458,-0.0265 -0.37147,-0.079 -0.10689,-0.0529 -0.19474,-0.12664 -0.26388,-0.22083 -0.0695,-0.0942 -0.1203,-0.20144 -0.15275,-0.32244 -0.0328,-0.12065 -0.049,-0.25012 -0.049,-0.38841 0,-0.30163 0.0734,-0.54681 0.22048,-0.73519 0.14711,-0.18874 0.3616,-0.28293 0.64312,-0.28293 0.16333,0 0.31079,0.0427 0.44309,0.12841 0.13193,0.0854 0.22295,0.20214 0.2734,0.35031 h 0.007 v -1.1878 h 0.14322 v 2.69275 h -0.14322 z m -0.4071,0.26212 c 0.0903,-0.049 0.1658,-0.11571 0.22613,-0.20003 0.0603,-0.084 0.10512,-0.17921 0.13405,-0.28469 0.0286,-0.10548 0.043,-0.21484 0.043,-0.32808 0,-0.11571 -0.0145,-0.22684 -0.043,-0.33373 -0.0289,-0.10689 -0.073,-0.20214 -0.13194,-0.28645 -0.0593,-0.0843 -0.13476,-0.15099 -0.22648,-0.19968 -0.0917,-0.0494 -0.19791,-0.0737 -0.31856,-0.0737 -0.12312,0 -0.23142,0.024 -0.32455,0.0716 -0.0928,0.0476 -0.16828,0.11324 -0.22613,0.19614 -0.0579,0.0829 -0.10054,0.1778 -0.12806,0.28469 -0.0279,0.10689 -0.0416,0.22049 -0.0416,0.34114 0,0.11818 0.0145,0.23001 0.0434,0.33584 0.0289,0.10548 0.0734,0.19967 0.13406,0.28258 0.0603,0.0833 0.13617,0.14852 0.22789,0.19614 0.0917,0.048 0.19791,0.0716 0.31856,0.0716 0.11818,0 0.2226,-0.0243 0.31326,-0.0734"
       style="fill:#231f20;fill-opacity:1;fill-rule:nonzero;stroke:none;stroke-width:0.352777"
       id="path420" />
    <path
       d="m 41.833301,5.6275368 h 0.14323 v 0.38841 h -0.14323 z m 0,0.75424 h 0.14323 v 1.93851 h -0.14323 z"
       style="fill:#231f20;fill-opacity:1;fill-rule:nonzero;stroke:none;stroke-width:0.352777"
       id="path422" />
    <path
       d="m 42.400821,6.9587468 c 0.0388,-0.12312 0.0974,-0.23107 0.17533,-0.32421 0.078,-0.0931 0.17215,-0.1658 0.28292,-0.21872 0.11042,-0.0529 0.23495,-0.0794 0.37324,-0.0794 0.13829,0 0.26317,0.0265 0.37536,0.0794 0.11148,0.0529 0.20602,0.12559 0.28257,0.21872 0.0769,0.0931 0.13441,0.20109 0.17357,0.32421 0.0392,0.12312 0.0586,0.254 0.0586,0.39229 0,0.13828 -0.0194,0.26846 -0.0586,0.39052 -0.0392,0.12171 -0.0974,0.22966 -0.17533,0.3242 -0.078,0.0942 -0.17216,0.16757 -0.28293,0.22049 -0.11077,0.0529 -0.23495,0.079 -0.37324,0.079 -0.13829,0 -0.26352,-0.0261 -0.37535,-0.079 -0.11183,-0.0529 -0.20532,-0.12559 -0.28081,-0.21872 -0.0755,-0.0931 -0.13335,-0.20109 -0.17357,-0.32421 -0.0402,-0.12311 -0.0603,-0.254 -0.0603,-0.39228 0,-0.13829 0.0194,-0.26917 0.0586,-0.39229 m 0.1337,0.72989 c 0.0328,0.1069 0.0811,0.20179 0.14535,0.28434 0.0642,0.0833 0.14252,0.14852 0.23565,0.19615 0.0931,0.048 0.19862,0.072 0.3168,0.072 0.11818,0 0.22366,-0.024 0.31679,-0.072 0.0928,-0.0476 0.17145,-0.11289 0.23566,-0.19615 0.0642,-0.0825 0.11253,-0.17744 0.14499,-0.28434 0.0328,-0.10689 0.049,-0.21942 0.049,-0.3376 0,-0.11818 -0.0162,-0.23072 -0.049,-0.33761 -0.0325,-0.10689 -0.0808,-0.20179 -0.14499,-0.28469 -0.0642,-0.0829 -0.14288,-0.14817 -0.23566,-0.19615 -0.0931,-0.0476 -0.19861,-0.0716 -0.31679,-0.0716 -0.11818,0 -0.22366,0.024 -0.3168,0.0716 -0.0931,0.048 -0.17145,0.11324 -0.23565,0.19615 -0.0642,0.0829 -0.11254,0.1778 -0.14535,0.28469 -0.0325,0.10689 -0.049,0.21943 -0.049,0.33761 0,0.11818 0.0166,0.23071 0.049,0.3376"
       style="fill:#231f20;fill-opacity:1;fill-rule:nonzero;stroke:none;stroke-width:0.352777"
       id="path426" />
    <path
       d="m 34.340231,11.611777 h -0.007 c -0.1584,0.30656 -0.40605,0.46002 -0.74295,0.46002 -0.14076,0 -0.26458,-0.0265 -0.37147,-0.079 -0.10689,-0.0529 -0.19474,-0.12665 -0.26388,-0.22084 -0.0695,-0.0942 -0.1203,-0.20179 -0.15275,-0.32244 -0.0328,-0.12065 -0.049,-0.25012 -0.049,-0.38841 0,-0.30162 0.0734,-0.5468 0.22048,-0.73519 0.14711,-0.18873 0.3616,-0.28292 0.64312,-0.28292 0.16333,0 0.31079,0.0427 0.44309,0.12841 0.13193,0.085 0.22295,0.20214 0.2734,0.35031 h 0.007 V 9.3339068 h 0.14322 v 2.6927502 h -0.14322 z m -0.4071,0.26211 c 0.0903,-0.049 0.1658,-0.11571 0.22613,-0.20002 0.0603,-0.084 0.10512,-0.17921 0.13405,-0.28469 0.0286,-0.10549 0.043,-0.21485 0.043,-0.32809 0,-0.11571 -0.0145,-0.22683 -0.043,-0.33373 -0.0289,-0.10689 -0.073,-0.20214 -0.13194,-0.28645 -0.0593,-0.0843 -0.13476,-0.15099 -0.22648,-0.20003 -0.0917,-0.049 -0.19791,-0.0734 -0.31856,-0.0734 -0.12312,0 -0.23142,0.0236 -0.32455,0.0716 -0.0928,0.0476 -0.16828,0.11289 -0.22613,0.19614 -0.0579,0.0829 -0.10054,0.1778 -0.12806,0.2847 -0.0279,0.10653 -0.0416,0.22048 -0.0416,0.34113 0,0.11818 0.0145,0.23001 0.0434,0.33549 0.0289,0.10584 0.0734,0.20003 0.13406,0.28293 0.0603,0.0829 0.13617,0.14852 0.22789,0.19615 0.0917,0.048 0.19791,0.0716 0.31856,0.0716 0.11818,0 0.2226,-0.0243 0.31326,-0.0734"
       style="fill:#231f20;fill-opacity:1;fill-rule:nonzero;stroke:none;stroke-width:0.352777"
       id="path430" />
    <path
       d="m 34.996361,11.076227 c 0,0.24624 0.0624,0.45296 0.18662,0.62018 0.12453,0.16722 0.29986,0.25083 0.52635,0.25083 0.18344,0 0.33655,-0.0515 0.46002,-0.15452 0.12312,-0.10301 0.20108,-0.24377 0.23354,-0.42228 h 0.14358 c -0.0378,0.22613 -0.12912,0.3997 -0.27376,0.52035 -0.14428,0.12065 -0.33231,0.18098 -0.56338,0.18098 -0.26917,0 -0.47908,-0.0924 -0.62971,-0.27729 -0.15099,-0.18485 -0.22649,-0.4191 -0.22649,-0.70308 0,-0.13829 0.0183,-0.27023 0.0547,-0.39617 0.0363,-0.12559 0.0907,-0.23742 0.16193,-0.33549 0.072,-0.0981 0.16157,-0.17534 0.26987,-0.23178 0.10795,-0.0568 0.23143,-0.085 0.36972,-0.085 0.1404,0 0.26528,0.0243 0.37323,0.0734 0.10795,0.049 0.19791,0.11853 0.26953,0.20743 0.0716,0.0896 0.12523,0.19191 0.16051,0.30762 0.0349,0.11536 0.0526,0.23989 0.0526,0.37324 l -0.004,0.0339 v 0.0378 z m 1.4217,-0.12453 c -0.002,-0.10301 -0.0201,-0.20179 -0.0526,-0.29598 -0.0328,-0.0942 -0.0794,-0.1778 -0.1397,-0.25083 -0.0603,-0.0727 -0.13442,-0.13053 -0.22261,-0.17321 -0.0878,-0.043 -0.18591,-0.0642 -0.29386,-0.0642 -0.10337,0 -0.19756,0.0219 -0.28293,0.066 -0.0854,0.0438 -0.1591,0.10372 -0.22049,0.17921 -0.0617,0.0751 -0.11006,0.15946 -0.14534,0.25224 -0.0353,0.0931 -0.0568,0.18873 -0.0642,0.28681 z"
       style="fill:#231f20;fill-opacity:1;fill-rule:nonzero;stroke:none;stroke-width:0.352777"
       id="path434" />
    <path
       d="m 38.122611,10.533197 h 0.007 c 0.0177,-0.0529 0.0448,-0.1076 0.0811,-0.16405 0.0363,-0.0564 0.0836,-0.10936 0.14146,-0.15839 0.0579,-0.049 0.12736,-0.0893 0.2092,-0.12065 0.0818,-0.0314 0.17286,-0.0473 0.2734,-0.0473 0.1457,0 0.27341,0.0265 0.38277,0.0794 0.10936,0.0529 0.20073,0.12629 0.2734,0.22049 0.073,0.0945 0.127,0.20249 0.16228,0.3242 0.0353,0.12206 0.0529,0.25365 0.0529,0.39405 0,0.30692 -0.0737,0.5521 -0.22084,0.73554 -0.14711,0.18345 -0.36372,0.27517 -0.65052,0.27517 -0.16828,0 -0.31397,-0.037 -0.43745,-0.11112 -0.12312,-0.0741 -0.21237,-0.18662 -0.26776,-0.33761 h -0.007 v 1.09749 h -0.14323 v -2.63243 h 0.14323 z m 1.03505,1.34443 c 0.0917,-0.0466 0.16792,-0.11006 0.22825,-0.1905 0.0603,-0.0804 0.10477,-0.17392 0.1337,-0.28116 0.0289,-0.10654 0.0434,-0.22155 0.0434,-0.34502 0,-0.11289 -0.0138,-0.22295 -0.0413,-0.32985 -0.0279,-0.10689 -0.0713,-0.20284 -0.13018,-0.28857 -0.0589,-0.0854 -0.13511,-0.1524 -0.22824,-0.20143 -0.0928,-0.049 -0.20215,-0.0737 -0.32809,-0.0737 -0.12558,0 -0.23353,0.024 -0.3242,0.0716 -0.0903,0.048 -0.16404,0.11324 -0.22048,0.19614 -0.0568,0.0833 -0.0981,0.1778 -0.12454,0.2847 -0.0265,0.10689 -0.0395,0.22083 -0.0395,0.34113 0,0.12347 0.0116,0.23707 0.0356,0.34149 0.024,0.10442 0.0628,0.1972 0.11713,0.27905 0.054,0.0815 0.12735,0.1464 0.22048,0.19403 0.0928,0.048 0.20497,0.072 0.33549,0.072 0.12348,0 0.23072,-0.0233 0.32244,-0.0698"
       style="fill:#231f20;fill-opacity:1;fill-rule:nonzero;stroke:none;stroke-width:0.352777"
       id="path438" />
    <path
       d="m 41.471461,11.668187 c 0,0.0755 0.007,0.13335 0.0208,0.17356 0.0138,0.0402 0.0494,0.0603 0.10724,0.0603 0.0254,0 0.0603,-0.004 0.10583,-0.0113 v 0.12065 h -0.0113 c -0.048,0.0102 -0.0829,0.0152 -0.10583,0.0152 -0.10301,0 -0.17215,-0.024 -0.20743,-0.072 -0.0353,-0.0476 -0.0526,-0.11783 -0.0526,-0.21096 v -0.10195 h -0.008 c -0.0476,0.12347 -0.13547,0.22577 -0.26388,0.30727 -0.12806,0.0818 -0.28046,0.12276 -0.45614,0.12276 -0.19862,0 -0.35666,-0.0434 -0.47343,-0.13017 -0.11677,-0.0868 -0.17533,-0.22543 -0.17533,-0.41663 0,-0.10795 0.0208,-0.19862 0.0621,-0.27164 0.0416,-0.0727 0.097,-0.13018 0.16616,-0.17145 0.0688,-0.0416 0.14393,-0.0716 0.22436,-0.0907 0.0804,-0.0187 0.16722,-0.0321 0.26,-0.0395 0.16863,-0.0123 0.29563,-0.0258 0.381,-0.0395 0.0854,-0.0138 0.14887,-0.0342 0.1905,-0.0603 0.0413,-0.0265 0.0677,-0.0617 0.079,-0.10584 0.0113,-0.0437 0.0173,-0.10971 0.0173,-0.1979 0,-0.0275 -0.008,-0.0621 -0.0247,-0.10337 -0.0166,-0.0416 -0.0448,-0.0836 -0.085,-0.12629 -0.0402,-0.043 -0.096,-0.0787 -0.16757,-0.10795 -0.072,-0.0286 -0.1591,-0.043 -0.26211,-0.043 -0.17604,0 -0.3168,0.0444 -0.42228,0.1337 -0.10583,0.0893 -0.16369,0.21696 -0.17357,0.38277 h -0.14358 c 0.0102,-0.21132 0.078,-0.37077 0.20391,-0.47872 0.12559,-0.10831 0.30409,-0.16228 0.53552,-0.16228 0.0928,0 0.17921,0.008 0.25823,0.0243 0.079,0.0166 0.15099,0.0434 0.21519,0.0811 0.0639,0.0378 0.1143,0.09 0.15064,0.15663 0.0363,0.0667 0.0547,0.14746 0.0547,0.24307 z m -0.14323,-0.74295 c -0.0377,0.043 -0.0938,0.0723 -0.16792,0.0889 -0.0741,0.0162 -0.17921,0.0293 -0.31503,0.0395 -0.10055,0.007 -0.17357,0.0152 -0.21873,0.0226 -0.17568,0.0201 -0.30868,0.0645 -0.39758,0.13405 -0.0892,0.0688 -0.13405,0.17392 -0.13405,0.31468 0,0.12312 0.0441,0.22437 0.13194,0.30374 0.0878,0.079 0.21378,0.11889 0.37712,0.11889 0.15099,0 0.27552,-0.0272 0.37359,-0.0811 0.0977,-0.0543 0.17215,-0.11959 0.22225,-0.19615 0.0504,-0.0769 0.0843,-0.14922 0.10195,-0.21696 0.0177,-0.0681 0.0265,-0.12311 0.0265,-0.16615 z"
       style="fill:#231f20;fill-opacity:1;fill-rule:nonzero;stroke:none;stroke-width:0.352777"
       id="path442" />
    <path
       d="m 42.104941,12.026567 h -0.14323 V 9.3341768 h 0.14323 z"
       style="fill:#231f20;fill-opacity:1;fill-rule:nonzero;stroke:none;stroke-width:0.352777"
       id="path444" />
    <path
       d="m 43.990431,11.668187 c 0,0.0755 0.007,0.13335 0.0208,0.17356 0.0138,0.0402 0.0494,0.0603 0.10725,0.0603 0.0254,0 0.0603,-0.004 0.10583,-0.0113 v 0.12065 h -0.0113 c -0.048,0.0102 -0.0832,0.0152 -0.10583,0.0152 -0.10301,0 -0.17216,-0.024 -0.20708,-0.072 -0.0356,-0.0476 -0.0529,-0.11783 -0.0529,-0.21096 v -0.10195 h -0.008 c -0.0476,0.12347 -0.13547,0.22577 -0.26388,0.30727 -0.12806,0.0818 -0.28046,0.12276 -0.45614,0.12276 -0.19862,0 -0.35666,-0.0434 -0.47343,-0.13017 -0.11677,-0.0868 -0.17533,-0.22543 -0.17533,-0.41663 0,-0.10795 0.0208,-0.19862 0.0621,-0.27164 0.0416,-0.0727 0.097,-0.13018 0.16616,-0.17145 0.0688,-0.0416 0.14393,-0.0716 0.22437,-0.0907 0.0804,-0.0187 0.16721,-0.0321 0.26035,-0.0395 0.16827,-0.0123 0.29527,-0.0258 0.38064,-0.0395 0.0854,-0.0138 0.14887,-0.0342 0.1905,-0.0603 0.0413,-0.0265 0.0677,-0.0617 0.079,-0.10584 0.0113,-0.0437 0.0173,-0.10971 0.0173,-0.1979 0,-0.0275 -0.008,-0.0621 -0.0247,-0.10337 -0.0166,-0.0416 -0.0448,-0.0836 -0.085,-0.12629 -0.0402,-0.043 -0.096,-0.0787 -0.16757,-0.10795 -0.072,-0.0286 -0.1591,-0.043 -0.26211,-0.043 -0.17604,0 -0.3168,0.0444 -0.42228,0.1337 -0.10583,0.0893 -0.16369,0.21696 -0.17356,0.38277 h -0.14352 c 0.0102,-0.21132 0.0783,-0.37077 0.2039,-0.47872 0.12559,-0.10831 0.3041,-0.16228 0.53552,-0.16228 0.0928,0 0.17921,0.008 0.25823,0.0243 0.079,0.0166 0.15099,0.0434 0.2152,0.0811 0.0639,0.0378 0.1143,0.09 0.15063,0.15663 0.0363,0.0667 0.0547,0.14746 0.0547,0.24307 z m -0.14322,-0.74295 c -0.0377,0.043 -0.0938,0.0723 -0.16793,0.0889 -0.0741,0.0162 -0.17921,0.0293 -0.31503,0.0395 -0.10054,0.007 -0.17357,0.0152 -0.21872,0.0226 -0.17568,0.0201 -0.30868,0.0645 -0.39758,0.13405 -0.0892,0.0688 -0.13406,0.17392 -0.13406,0.31468 0,0.12312 0.0441,0.22437 0.13194,0.30374 0.0878,0.079 0.21379,0.11889 0.37712,0.11889 0.15099,0 0.27552,-0.0272 0.37359,-0.0811 0.0977,-0.0543 0.17216,-0.11959 0.22225,-0.19615 0.0504,-0.0769 0.0843,-0.14922 0.10196,-0.21696 0.0177,-0.0681 0.0265,-0.12311 0.0265,-0.16615 z"
       style="fill:#231f20;fill-opacity:1;fill-rule:nonzero;stroke:none;stroke-width:0.352777"
       id="path448" />
    <path
       d="m 44.480551,9.3339568 h 0.14322 v 1.1652302 h 0.008 c 0.0526,-0.1457 0.14746,-0.25823 0.28434,-0.33761 0.13723,-0.079 0.28752,-0.11853 0.45085,-0.11853 0.27411,0 0.4826,0.0907 0.62583,0.27164 0.14358,0.18062 0.21519,0.41345 0.21519,0.69744 0,0.21625 -0.0289,0.39581 -0.0868,0.5394 -0.0579,0.14322 -0.13158,0.25188 -0.22048,0.32596 -0.0896,0.0744 -0.17992,0.12524 -0.27164,0.15275 -0.0917,0.0275 -0.17921,0.0416 -0.26212,0.0416 -0.11818,0 -0.2226,-0.0183 -0.31291,-0.0547 -0.0907,-0.0367 -0.1655,-0.0818 -0.22442,-0.13582 -0.0593,-0.054 -0.10442,-0.10759 -0.13582,-0.16051 -0.0314,-0.0526 -0.0522,-0.0952 -0.0621,-0.12806 h -0.008 v 0.43356 h -0.14322 z m 1.20297,2.5340102 c 0.0907,-0.0526 0.16334,-0.12418 0.21872,-0.21484 0.0554,-0.0903 0.0963,-0.1905 0.12242,-0.29951 0.0265,-0.10936 0.0399,-0.22331 0.0399,-0.34149 0,-0.11077 -0.0145,-0.21625 -0.0434,-0.3168 -0.0293,-0.10054 -0.0737,-0.19085 -0.13407,-0.27164 -0.0603,-0.0801 -0.1337,-0.14322 -0.22048,-0.18838 -0.0868,-0.0451 -0.18662,-0.0677 -0.29987,-0.0677 -0.24376,0 -0.42791,0.0773 -0.55245,0.23177 -0.12452,0.15452 -0.18661,0.35878 -0.18661,0.61278 0,0.12312 0.0138,0.24024 0.0413,0.35066 0.0279,0.11042 0.0716,0.21061 0.13194,0.29986 0.0607,0.0893 0.13828,0.1591 0.23389,0.2092 0.0956,0.0504 0.20637,0.0755 0.33196,0.0755 0.12065,0 0.22648,-0.0265 0.3168,-0.0794"
       style="fill:#231f20;fill-opacity:1;fill-rule:nonzero;stroke:none;stroke-width:0.352777"
       id="path452" />
    <path
       d="m 46.686781,10.518197 h 0.0113 c 0.0378,-0.12559 0.12489,-0.23071 0.26212,-0.31503 0.13688,-0.0843 0.29704,-0.12629 0.48083,-0.12629 v 0.14323 l -0.0339,-0.004 h -0.0381 c -0.0776,0 -0.15769,0.0152 -0.23918,0.0451 -0.0819,0.03 -0.15663,0.079 -0.22437,0.14711 -0.0755,0.078 -0.12876,0.15522 -0.16016,0.23177 -0.0318,0.0769 -0.0512,0.18556 -0.0586,0.32632 v 1.05939 h -0.14323 v -1.93816 h 0.14323 z"
       style="fill:#231f20;fill-opacity:1;fill-rule:nonzero;stroke:none;stroke-width:0.352777"
       id="path456" />
    <path
       d="m 49.021041,11.668187 c 0,0.0755 0.007,0.13335 0.0208,0.17356 0.0138,0.0402 0.0494,0.0603 0.10725,0.0603 0.0254,0 0.0603,-0.004 0.10583,-0.0113 v 0.12065 h -0.0116 c -0.0476,0.0102 -0.0829,0.0152 -0.10548,0.0152 -0.10301,0 -0.17216,-0.024 -0.20743,-0.072 -0.0353,-0.0476 -0.0526,-0.11783 -0.0526,-0.21096 v -0.10195 h -0.008 c -0.0476,0.12347 -0.13547,0.22577 -0.26388,0.30727 -0.12806,0.0818 -0.28046,0.12276 -0.45614,0.12276 -0.19862,0 -0.35666,-0.0434 -0.47343,-0.13017 -0.11677,-0.0868 -0.17533,-0.22543 -0.17533,-0.41663 0,-0.10795 0.0208,-0.19862 0.0621,-0.27164 0.0416,-0.0727 0.097,-0.13018 0.16616,-0.17145 0.0688,-0.0416 0.14393,-0.0716 0.22436,-0.0907 0.0804,-0.0187 0.16722,-0.0321 0.26,-0.0395 0.16863,-0.0123 0.29563,-0.0258 0.381,-0.0395 0.0854,-0.0138 0.14887,-0.0342 0.1905,-0.0603 0.0413,-0.0265 0.0677,-0.0617 0.079,-0.10584 0.0113,-0.0437 0.0173,-0.10971 0.0173,-0.1979 0,-0.0275 -0.008,-0.0621 -0.0247,-0.10337 -0.0166,-0.0416 -0.0448,-0.0836 -0.085,-0.12629 -0.0402,-0.043 -0.096,-0.0787 -0.16757,-0.10795 -0.072,-0.0286 -0.1591,-0.043 -0.26211,-0.043 -0.17604,0 -0.3168,0.0444 -0.42228,0.1337 -0.10583,0.0893 -0.16369,0.21696 -0.17356,0.38277 h -0.14359 c 0.0102,-0.21132 0.078,-0.37077 0.20391,-0.47872 0.12559,-0.10831 0.30409,-0.16228 0.53552,-0.16228 0.0928,0 0.17921,0.008 0.25823,0.0243 0.079,0.0166 0.15099,0.0434 0.21519,0.0811 0.0639,0.0378 0.1143,0.09 0.15064,0.15663 0.0363,0.0667 0.0547,0.14746 0.0547,0.24307 z m -0.14322,-0.74295 c -0.0378,0.043 -0.0938,0.0723 -0.16793,0.0889 -0.0741,0.0162 -0.17921,0.0293 -0.31503,0.0395 -0.10054,0.007 -0.17356,0.0152 -0.21872,0.0226 -0.17568,0.0201 -0.30868,0.0645 -0.39758,0.13405 -0.0893,0.0688 -0.13406,0.17392 -0.13406,0.31468 0,0.12312 0.0441,0.22437 0.13194,0.30374 0.0878,0.079 0.21379,0.11889 0.37712,0.11889 0.15099,0 0.27552,-0.0272 0.37324,-0.0811 0.0981,-0.0543 0.17251,-0.11959 0.2226,-0.19615 0.0504,-0.0769 0.0843,-0.14922 0.10196,-0.21696 0.0176,-0.0681 0.0265,-0.12311 0.0265,-0.16615 z"
       style="fill:#231f20;fill-opacity:1;fill-rule:nonzero;stroke:none;stroke-width:0.352777"
       id="path460" />
    <path
       d="m 49.545061,11.381557 c 0.01,0.17603 0.0748,0.31432 0.19438,0.41486 0.11924,0.10054 0.26811,0.15099 0.44662,0.15099 0.073,0 0.14393,-0.006 0.21307,-0.0191 0.0691,-0.0123 0.13441,-0.0339 0.19615,-0.0642 0.0617,-0.03 0.11148,-0.072 0.14887,-0.12595 0.0378,-0.0543 0.0568,-0.12135 0.0568,-0.20214 0,-0.0751 -0.0166,-0.13723 -0.049,-0.18626 -0.0328,-0.049 -0.0769,-0.0889 -0.13194,-0.11889 -0.0554,-0.0303 -0.11571,-0.0543 -0.18133,-0.0716 -0.0653,-0.0176 -0.14816,-0.0363 -0.2487,-0.0568 l -0.0529,-0.0113 c -0.10055,-0.0201 -0.18803,-0.0413 -0.26176,-0.0639 -0.0744,-0.0229 -0.14217,-0.0536 -0.20391,-0.0928 -0.0617,-0.0384 -0.11077,-0.0907 -0.14711,-0.15628 -0.0363,-0.0653 -0.0547,-0.14463 -0.0547,-0.23777 0,-0.0903 0.0201,-0.16827 0.0603,-0.23354 0.0402,-0.0653 0.0945,-0.11747 0.16228,-0.15663 0.0681,-0.0388 0.14252,-0.0663 0.22436,-0.0829 0.0815,-0.0162 0.16651,-0.0247 0.25471,-0.0247 0.21872,0 0.39264,0.0504 0.52211,0.15099 0.12947,0.10054 0.19438,0.25647 0.19438,0.46778 h -0.14358 c -0.002,-0.16862 -0.055,-0.2928 -0.1584,-0.37359 -0.10301,-0.0804 -0.2413,-0.12065 -0.41451,-0.12065 -0.0706,0 -0.13829,0.007 -0.20391,0.0208 -0.0653,0.0138 -0.12488,0.0353 -0.17885,0.0642 -0.0543,0.0289 -0.097,0.0677 -0.12841,0.11677 -0.0314,0.049 -0.0469,0.10619 -0.0469,0.17145 0,0.0681 0.0155,0.12595 0.0469,0.17357 0.0314,0.048 0.0741,0.0864 0.12841,0.11536 0.054,0.0286 0.11112,0.0515 0.17145,0.0677 0.0603,0.0162 0.1397,0.0356 0.23777,0.0582 l 0.06,0.0113 c 0.11571,0.0229 0.21167,0.0455 0.28857,0.0681 0.0769,0.0226 0.14535,0.054 0.20567,0.0942 0.0603,0.0402 0.10725,0.0938 0.14147,0.16051 0.0339,0.0663 0.0508,0.14852 0.0508,0.24659 0,0.0981 -0.0226,0.18239 -0.0681,0.25294 -0.0452,0.0702 -0.10478,0.1263 -0.17886,0.16757 -0.0741,0.0416 -0.15522,0.0713 -0.24342,0.0889 -0.0878,0.0173 -0.17709,0.0265 -0.26776,0.0265 -0.2286,0 -0.41522,-0.0607 -0.55985,-0.18133 -0.14464,-0.12065 -0.21943,-0.29033 -0.22437,-0.50905 z"
       style="fill:#231f20;fill-opacity:1;fill-rule:nonzero;stroke:none;stroke-width:0.352777"
       id="path464" />
  </g>
</svg>
