<?xml version="1.0" encoding="UTF-8" standalone="no"?>
<svg
   xmlns:dc="http://purl.org/dc/elements/1.1/"
   xmlns:cc="http://creativecommons.org/ns#"
   xmlns:rdf="http://www.w3.org/1999/02/22-rdf-syntax-ns#"
   xmlns:svg="http://www.w3.org/2000/svg"
   xmlns="http://www.w3.org/2000/svg"
   xmlns:sodipodi="http://sodipodi.sourceforge.net/DTD/sodipodi-0.dtd"
   xmlns:inkscape="http://www.inkscape.org/namespaces/inkscape"
   width="22.30191mm"
   height="21.740284mm"
   viewBox="0 0 22.30191 21.740284"
   version="1.1"
   id="svg1060"
   inkscape:version="1.0.1 (3bc2e813f5, 2020-09-07)"
   sodipodi:docname="mot-icono-footer1.svg">
  <defs
     id="defs1054" />
  <sodipodi:namedview
     id="base"
     pagecolor="#ffffff"
     bordercolor="#666666"
     borderopacity="1.0"
     inkscape:pageopacity="0.0"
     inkscape:pageshadow="2"
     inkscape:zoom="0.35"
     inkscape:cx="376.4008"
     inkscape:cy="192.50908"
     inkscape:document-units="mm"
     inkscape:current-layer="layer1"
     inkscape:document-rotation="0"
     showgrid="false"
     fit-margin-top="0"
     fit-margin-left="0"
     fit-margin-right="0"
     fit-margin-bottom="0"
     inkscape:window-width="1261"
     inkscape:window-height="962"
     inkscape:window-x="0"
     inkscape:window-y="25"
     inkscape:window-maximized="0" />
  <metadata
     id="metadata1057">
    <rdf:RDF>
      <cc:Work
         rdf:about="">
        <dc:format>image/svg+xml</dc:format>
        <dc:type
           rdf:resource="http://purl.org/dc/dcmitype/StillImage" />
        <dc:title></dc:title>
      </cc:Work>
    </rdf:RDF>
  </metadata>
  <g
     inkscape:label="Layer 1"
     inkscape:groupmode="layer"
     id="layer1"
     transform="translate(-5.4880019,-6.5176857)">
    <path
       d="m 27.789912,17.387827 c 0,6.00322 -4.99251,10.870142 -11.15095,10.870142 -6.15845,0 -11.1509601,-4.866922 -11.1509601,-10.870142 0,-6.003219 4.9925101,-10.8701413 11.1509601,-10.8701413 6.15844,0 11.15095,4.8669223 11.15095,10.8701413"
       style="fill:#50afb9;fill-opacity:1;fill-rule:nonzero;stroke:none;stroke-width:0.352777"
       id="path906" />
    <path
       d="m 9.1348819,18.764111 h 0.20814 c 0.11077,0 0.18944,-0.02293 0.23671,-0.06879 0.0469,-0.04586 0.0709,-0.122767 0.0709,-0.231069 v -2.090916 c 0,-0.102658 -0.024,-0.176742 -0.0709,-0.222956 -0.0473,-0.04551 -0.12594,-0.06879 -0.23671,-0.06879 h -0.16651 v -0.607835 h 1.0392801 l 0.0582,0.551391 c 0.14958,-0.227189 0.33655,-0.395816 0.56127,-0.506589 0.22436,-0.110772 0.49706,-0.166158 0.81879,-0.166158 0.24377,0 0.45438,0.05397 0.63183,0.161925 0.17709,0.108303 0.31009,0.262114 0.39899,0.461786 0.13829,-0.2159 0.30868,-0.373944 0.51118,-0.47378 0.20249,-0.100189 0.45578,-0.149931 0.76094,-0.149931 0.45402,0 0.78246,0.110772 0.98495,0.332317 0.20214,0.221191 0.30339,0.553861 0.30339,0.996597 v 1.782939 c 0,0.102658 0.025,0.178152 0.0748,0.226836 0.0501,0.04868 0.12771,0.07302 0.23283,0.07302 h 0.23284 v 0.599722 h -1.41323 v -2.682522 c 0,-0.270228 -0.0529,-0.461786 -0.15804,-0.575381 -0.10549,-0.113594 -0.28258,-0.170391 -0.53199,-0.170391 -0.25506,0 -0.45615,0.07055 -0.6029,0.210961 -0.14676,0.14041 -0.22013,0.345727 -0.22013,0.615955 v 1.7018 c 0,0.108302 0.0208,0.185208 0.0624,0.231069 0.0416,0.04586 0.11465,0.06879 0.22013,0.06879 h 0.22437 v 0.599722 h -1.32997 v -2.658181 c 0,-0.264583 -0.0529,-0.459316 -0.15805,-0.583494 -0.10548,-0.124178 -0.27164,-0.186619 -0.49883,-0.186619 -0.27728,0 -0.49036,0.07585 -0.63994,0.227189 -0.14993,0.151343 -0.22472,0.372535 -0.22472,0.664635 v 1.636889 c 0,0.108302 0.0208,0.185208 0.0624,0.231069 0.0416,0.04586 0.115,0.06879 0.22048,0.06879 h 0.22437 v 0.599722 H 9.1347919 Z"
       style="fill:#ffffff;fill-opacity:1;fill-rule:nonzero;stroke:none;stroke-width:0.352777"
       id="path910" />
    <path
       d="m 16.766802,18.942334 c -0.34396,-0.36195 -0.51576,-0.867128 -0.51576,-1.515533 0,-0.653698 0.17074,-1.162756 0.51153,-1.527528 0.34078,-0.364772 0.85196,-0.546805 1.53388,-0.546805 0.68156,0 1.19309,0.182033 1.53387,0.546805 0.34079,0.364772 0.51118,0.87383 0.51118,1.527528 0,0.648405 -0.1718,1.153583 -0.51541,1.515533 -0.34361,0.36195 -0.85337,0.542925 -1.52964,0.542925 -0.67628,0 -1.18604,-0.180975 -1.52965,-0.542925 m 2.419,-0.421217 c 0.19403,-0.237772 0.29104,-0.602544 0.29104,-1.094316 0,-0.497064 -0.097,-0.865717 -0.29104,-1.105958 -0.19403,-0.240595 -0.49036,-0.360892 -0.88935,-0.360892 -0.39935,0 -0.69427,0.120297 -0.88548,0.360892 -0.1912,0.240241 -0.28681,0.608894 -0.28681,1.105958 0,0.491772 0.0956,0.856544 0.28681,1.094316 0.19121,0.237773 0.48613,0.356306 0.88548,0.356306 0.39899,0 0.69532,-0.118533 0.88935,-0.356306"
       style="fill:#ffffff;fill-opacity:1;fill-rule:nonzero;stroke:none;stroke-width:0.352777"
       id="path914" />
    <path
       d="m 21.513852,19.153101 c -0.23283,-0.221544 -0.34925,-0.545394 -0.34925,-0.972608 v -2.123017 h -0.64841 v -0.583494 h 0.64841 V 14.59874 l 0.88124,-0.275519 v 1.150761 h 1.19733 v 0.583494 h -1.19733 v 2.179814 c 0,0.237772 0.0459,0.408164 0.13723,0.510822 0.0914,0.102306 0.23142,0.153811 0.4198,0.153811 0.24377,0 0.42933,-0.05151 0.55704,-0.153811 v -0.348897 h 0.75671 v 0.61595 c -0.18309,0.151694 -0.38241,0.267758 -0.59867,0.348544 -0.21625,0.08114 -0.47131,0.121709 -0.76482,0.121709 -0.46037,0 -0.80645,-0.110773 -1.03928,-0.332317"
       style="fill:#ffffff;fill-opacity:1;fill-rule:nonzero;stroke:none;stroke-width:0.352777"
       id="path918" />
  </g>
</svg>
